<?xml version="1.0" standalone="yes"?>
<svg width="30" height="30">
<path style="fill:#ffffff; stroke:none;" d="M0 0L0 302L300 302L300 0L0 0z"/>
<path style="fill:#b7b7b7; stroke:none;" d="M32.6667 23.3333L33.3333 23.6667L32.6667 23.3333z"/>
<path style="fill:#343434; stroke:none;" d="M31 26C41.6297 25.0626 46.589 34.3323 54 40C51.5662 34.2519 37.7985 18.2617 31 26z"/>
<path style="fill:#ffffff; stroke:none;" d="M32 25C28.8991 41.7128 36.8953 63.119 44.108 78C47.4901 84.9778 54.429 93.4152 55 101C66.5995 104.954 69.5708 120.018 80.0154 124.925C90.8075 129.996 97.9875 122.546 108 123L111 119L111 127L112 127L112 122L114 122L115 131L116 131L118 126C116.646 130.769 117.632 134.395 122 137L122 131L124 131L123 139L124 139L126 136L127 144L128 144L131 138C129.161 143.056 128.597 146.33 133 150L133 143L135 143L136 155L146 147C136.134 161.006 121.867 171.782 110.039 184.004C100.833 193.518 93.4076 204.546 85.3488 215C80.4142 221.401 63.1017 236.495 76 243L78 239L77 244C87.9212 243.961 86.0546 237.744 92 231L89 240C99.9828 233.689 99.028 221.508 106 213L103 224C110.155 218.669 110.937 208.952 114 201L115 201L111 214L112 214C116.916 207.429 120.617 200.368 121 192L123 192L119 205L120 205C124.833 198.558 126.978 194.117 127 186L129 186L128 195L136 180L134 189C139.888 184.554 140.854 178.056 141 171L143 171L142 181L156 167C151.948 173.564 153.864 176.662 160 181L160 167L162 167C162 173.871 159.462 184.22 168 186L170 179L171 179C170.26 183.188 167.935 186.501 171 190L172 185L173 185L172 192L175 187L176 187C175.702 191.433 175.458 193.976 179 197L179 190L181 190C181.001 197.294 181.743 201.54 188 206L189 198L190 198L192 210L195 203L195 214L196 214L196 209L198 209C198.005 215.927 199.14 219.823 205 224L206 214L207 214C207 226.29 211.171 233.196 220.425 241.655C227.756 248.356 231.143 240.837 229 234L231 238L232 238C232 213.624 199.119 191.125 183 175C176.749 168.746 171.732 160.56 165 155L156 167L162 148L163 148L162 157L163 157L172 131L173 131L172 140L173 140L177 124L178 124L178 131L179 131L184 115L183 122L184 122C185.587 119.323 187.102 115.434 190.105 114.059C193.694 112.416 199.126 115.027 203 114.946C213.693 114.723 222.874 106.77 223 96L225 96L225 100L226 100C234.314 85.0672 248.465 68.5764 250 51C244.305 53.801 242.581 59.7407 239.573 65C233.499 75.6178 226.025 93.0199 215 99C211.351 80.501 235.959 65.1299 241 48C226.242 59.32 220.111 82.331 202 90C205.34 71.2728 227.761 60.8952 231 43C218.036 52.1319 212.028 66.6078 201.671 77.8951C199.245 80.5388 190.368 86.2626 188.447 79.8519C187.216 75.7447 193.296 69.8348 195.616 67C203.426 57.4563 218.076 47.3047 221 35C214.131 37.9082 209.708 43.5811 204.831 49C194.65 60.3115 181.172 72.4925 177.819 88C176.381 94.6554 181.674 103.923 179.654 109C177.89 113.436 172.829 117.45 169.715 121C161.997 129.799 154.265 138.713 146 147C150.858 137.616 131.017 120.795 123.961 114.285C100.85 92.9656 82.1346 67.0276 59.0394 45.7145C50.0687 37.4361 45.1698 26.9741 32 25z"/>
<path style="fill:#505050; stroke:none;" d="M30 26L32 45L33 45L30 26z"/>
<path style="fill:#bbbbbb; stroke:none;" d="M31.3333 26.6667L31.6667 27.3333L31.3333 26.6667z"/>
<path style="fill:#a8a8a8; stroke:none;" d="M41 26L42 27L41 26z"/>
<path style="fill:#cacaca; stroke:none;" d="M29 29L29 35L30 35L29 29z"/>
<path style="fill:#858585; stroke:none;" d="M218 34L219 35L218 34z"/>
<path style="fill:#373737; stroke:none;" d="M219 34L219 35L221 38L222 38L222 34L219 34z"/>
<path style="fill:#b1b1b1; stroke:none;" d="M31 35L31 38L32 38L31 35z"/>
<path style="fill:#020202; stroke:none;" d="M216 37L219 35L216 37z"/>
<path style="fill:#8c8c8c; stroke:none;" d="M222.333 35.6667L222.667 36.3333L222.333 35.6667z"/>
<path style="fill:#000000; stroke:none;" d="M215 37L216 38L215 37z"/>
<path style="fill:#8d8d8d; stroke:none;" d="M216 37L217 38L216 37z"/>
<path style="fill:#989898; stroke:none;" d="M213 38L214 39L213 38z"/>
<path style="fill:#050505; stroke:none;" d="M214 38L215 39L214 38z"/>
<path style="fill:#6b6b6b; stroke:none;" d="M220.667 38.3333L221.333 38.6667L220.667 38.3333z"/>
<path style="fill:#8e8e8e; stroke:none;" d="M54 39L55 40L54 39z"/>
<path style="fill:#8d8d8d; stroke:none;" d="M212 39L213 40L212 39z"/>
<path style="fill:#0d0d0d; stroke:none;" d="M213 39L214 40L213 39z"/>
<path style="fill:#a5a5a5; stroke:none;" d="M219 39L220 40L219 39z"/>
<path style="fill:#0d0d0d; stroke:none;" d="M220 39L221 40L220 39z"/>
<path style="fill:#060606; stroke:none;" d="M54 40L55 41L54 40z"/>
<path style="fill:#969696; stroke:none;" d="M211 40L212 41L211 40z"/>
<path style="fill:#0c0c0c; stroke:none;" d="M212 40L213 41L212 40z"/>
<path style="fill:#363636; stroke:none;" d="M219 40L217 44L219 40z"/>
<path style="fill:#000000; stroke:none;" d="M55 41L58 44L55 41z"/>
<path style="fill:#919191; stroke:none;" d="M210 41L211 42L210 41z"/>
<path style="fill:#0e0e0e; stroke:none;" d="M211 41L212 42L211 41z"/>
<path style="fill:#999999; stroke:none;" d="M55 42L56 43L55 42z"/>
<path style="fill:#808080; stroke:none;" d="M141 42L141 43L158 43L141 42z"/>
<path style="fill:#8c8c8c; stroke:none;" d="M209 42L210 43L209 42z"/>
<path style="fill:#0b0b0b; stroke:none;" d="M210 42L211 43L210 42z"/>
<path style="fill:#454545; stroke:none;" d="M227 45L231 43L227 53L232 42L227 45z"/>
<path style="fill:#999999; stroke:none;" d="M56 43L57 44L56 43z"/>
<path style="fill:#b7b7b6; stroke:none;" d="M131 43L131 44L134 44L131 43z"/>
<path style="fill:#2e3030; stroke:none;" d="M134 43L134 44L138 44L134 43z"/>
<path style="fill:#000000; stroke:none;" d="M81 69C109.81 50.0226 137.366 41.3178 172 47.1458C180.675 48.6056 188.41 53.521 197 55L196 58L200 54C170.117 41.7433 138.805 39.1921 108 50.1813C100.871 52.7245 80.8597 60.3505 81 69z"/>
<path style="fill:#434443; stroke:none;" d="M161 43L161 44L164 44L161 43z"/>
<path style="fill:#999999; stroke:none;" d="M164 43L164 44L167 44L164 43z"/>
<path style="fill:#9d9d9d; stroke:none;" d="M208 43L209 44L208 43z"/>
<path style="fill:#0a0a0a; stroke:none;" d="M209 43L210 44L209 43z"/>
<path style="fill:#787878; stroke:none;" d="M216 43L217 44L216 43z"/>
<path style="fill:#c2c2c2; stroke:none;" d="M232.333 43.6667L232.667 44.3333L232.333 43.6667z"/>
<path style="fill:#7d7d7d; stroke:none;" d="M33 44L33 51L34 51L33 44z"/>
<path style="fill:#9e9e9e; stroke:none;" d="M57 44L58 45L57 44z"/>
<path style="fill:#010101; stroke:none;" d="M58 44L59 45L58 44z"/>
<path style="fill:#979797; stroke:none;" d="M126.667 44.3333L127.333 44.6667L126.667 44.3333z"/>
<path style="fill:#414241; stroke:none;" d="M128 44L128 45L131 45L128 44z"/>
<path style="fill:#3d3d3d; stroke:none;" d="M168 44L168 45L171 45L168 44z"/>
<path style="fill:#bebebe; stroke:none;" d="M171.667 44.3333L172.333 44.6667L171.667 44.3333z"/>
<path style="fill:#a5a5a5; stroke:none;" d="M207 44L208 45L207 44z"/>
<path style="fill:#070707; stroke:none;" d="M208 44L209 45L208 44z"/>
<path style="fill:#919191; stroke:none;" d="M215 44L216 45L215 44z"/>
<path style="fill:#060606; stroke:none;" d="M216 44L217 45L216 44z"/>
<path style="fill:#949494; stroke:none;" d="M58 45L59 46L58 45z"/>
<path style="fill:#000000; stroke:none;" d="M59 45L61 47L59 45z"/>
<path style="fill:#7d7d7d; stroke:none;" d="M122.667 45.3333L123.333 45.6667L122.667 45.3333z"/>
<path style="fill:#c03b34; stroke:none;" d="M150 141L151 141C158.377 132.99 172.086 122.269 175.843 112C179.205 102.808 173.757 93.6179 177.873 84C182.563 73.0392 192.185 65.5127 197 55C166.018 46.5262 139.287 40.2849 108 52.8002C102.549 54.9804 83.2459 61.9065 83.3457 69.0401C83.4353 75.4476 96.7406 84.7337 101 89C117.835 105.862 133.12 124.12 150 141z"/>
<path style="fill:#777777; stroke:none;" d="M174.667 45.3333L175.333 45.6667L174.667 45.3333z"/>
<path style="fill:#020202; stroke:none;" d="M207 45L208 46L207 45z"/>
<path style="fill:#050505; stroke:none;" d="M215 45L216 46L215 45z"/>
<path style="fill:#717171; stroke:none;" d="M223 50L228 45L223 50z"/>
<path style="fill:#9b9b9b; stroke:none;" d="M59 46L60 47L59 46z"/>
<path style="fill:#818181; stroke:none;" d="M118 46L118 47L121 47L118 46z"/>
<path style="fill:#afafaf; stroke:none;" d="M179.667 46.3333L180.333 46.6667L179.667 46.3333z"/>
<path style="fill:#010101; stroke:none;" d="M206 46L205 48L206 46z"/>
<path style="fill:#0a0a0a; stroke:none;" d="M214 46L215 47L214 46z"/>
<path style="fill:#4b4b4b; stroke:none;" d="M237 51L241 48L239 54L240 54L243 47L242 46L237 51z"/>
<path style="fill:#010101; stroke:none;" d="M61 47L62 48L61 47z"/>
<path style="fill:#595757; stroke:none;" d="M115.667 47.3333L116.333 47.6667L115.667 47.3333z"/>
<path style="fill:#561412; stroke:none;" d="M124 47L124 48L127 48L124 47z"/>
<path style="fill:#5a1713; stroke:none;" d="M172 47L172 48L175 48L172 47z"/>
<path style="fill:#939393; stroke:none;" d="M182.667 47.3333L183.333 47.6667L182.667 47.3333z"/>
<path style="fill:#9f9f9f; stroke:none;" d="M206 47L207 48L206 47z"/>
<path style="fill:#0b0b0b; stroke:none;" d="M213 47L214 48L213 47z"/>
<path style="fill:#a5a5a5; stroke:none;" d="M214 47L215 48L214 47z"/>
<path style="fill:#040404; stroke:none;" d="M62 48L63 49L62 48z"/>
<path style="fill:#9d9d9d; stroke:none;" d="M63 48L64 49L63 48z"/>
<path style="fill:#a7a7a7; stroke:none;" d="M112 48L113 49L112 48z"/>
<path style="fill:#651b16; stroke:none;" d="M176.667 48.3333L177.333 48.6667L176.667 48.3333z"/>
<path style="fill:#0a0a0a; stroke:none;" d="M204 48L205 49L204 48z"/>
<path style="fill:#8b8b8b; stroke:none;" d="M205 48L206 49L205 48z"/>
<path style="fill:#0c0c0c; stroke:none;" d="M212 48L213 49L212 48z"/>
<path style="fill:#8b8b8b; stroke:none;" d="M213 48L214 49L213 48z"/>
<path style="fill:#070707; stroke:none;" d="M63 49L64 50L63 49z"/>
<path style="fill:#a7a7a7; stroke:none;" d="M64 49L65 50L64 49z"/>
<path style="fill:#676767; stroke:none;" d="M109.667 49.3333L110.333 49.6667L109.667 49.3333z"/>
<path style="fill:#a7a9a7; stroke:none;" d="M188.667 49.3333L189.333 49.6667L188.667 49.3333z"/>
<path style="fill:#4a4a4a; stroke:none;" d="M198 53L198 54L205 49L198 53z"/>
<path style="fill:#141414; stroke:none;" d="M211 49L212 50L211 49z"/>
<path style="fill:#818181; stroke:none;" d="M212 49L213 50L212 49z"/>
<path style="fill:#1b1b1b; stroke:none;" d="M222 49L220 53L222 49z"/>
<path style="fill:#757575; stroke:none;" d="M248 49L252 53L248 49z"/>
<path style="fill:#2c2c2c; stroke:none;" d="M34 50L34 55L35 55L34 50z"/>
<path style="fill:#090909; stroke:none;" d="M64 50L65 51L64 50z"/>
<path style="fill:#9b9b9b; stroke:none;" d="M65 50L66 51L65 50z"/>
<path style="fill:#571613; stroke:none;" d="M183.667 50.3333L184.333 50.6667L183.667 50.3333z"/>
<path style="fill:#727272; stroke:none;" d="M191 50L192 51L191 50z"/>
<path style="fill:#5d5d5d; stroke:none;" d="M208 54L212 50L208 54z"/>
<path style="fill:#8a8a8a; stroke:none;" d="M236 50L237 51L236 50z"/>
<path style="fill:#0c0c0c; stroke:none;" d="M247 50L248 51L247 50z"/>
<path style="fill:#cacaca; stroke:none;" d="M33 51L33 54L34 54L33 51z"/>
<path style="fill:#121212; stroke:none;" d="M65 51L66 52L65 51z"/>
<path style="fill:#888888; stroke:none;" d="M66 51L67 52L66 51z"/>
<path style="fill:#030303; stroke:none;" d="M236 51L237 52L236 51z"/>
<path style="fill:#323232; stroke:none;" d="M246 51L244 55L246 51z"/>
<path style="fill:#929292; stroke:none;" d="M247 51L248 52L247 51z"/>
<path style="fill:#292929; stroke:none;" d="M40 52L40 56L41 56L42 52L40 52z"/>
<path style="fill:#141414; stroke:none;" d="M66 52L67 53L66 52z"/>
<path style="fill:#a5a5a5; stroke:none;" d="M67 52L68 53L67 52M102 52L103 53L102 52z"/>
<path style="fill:#979797; stroke:none;" d="M196 52L197 53L196 52z"/>
<path style="fill:#8b8b8b; stroke:none;" d="M219 52L220 53L219 52z"/>
<path style="fill:#959595; stroke:none;" d="M226 52L227 53L226 52z"/>
<path style="fill:#4f4f4f; stroke:none;" d="M234 55L237 52L234 55z"/>
<path style="fill:#060606; stroke:none;" d="M67 53L68 54L67 53z"/>
<path style="fill:#a3a3a3; stroke:none;" d="M68 53L69 54L68 53z"/>
<path style="fill:#898989; stroke:none;" d="M100 53L101 54L100 53z"/>
<path style="fill:#383838; stroke:none;" d="M207 53L205 58L207 53z"/>
<path style="fill:#060606; stroke:none;" d="M219 53L220 54L219 53z"/>
<path style="fill:#050505; stroke:none;" d="M226 53L227 54L226 53z"/>
<path style="fill:#2c2c2c; stroke:none;" d="M250 53L250 56L251 56L250 53z"/>
<path style="fill:#030303; stroke:none;" d="M68 54L69 55L68 54z"/>
<path style="fill:#959595; stroke:none;" d="M98 54L99 55L98 54z"/>
<path style="fill:#2b2b2b; stroke:none;" d="M218 54L215 59L218 54z"/>
<path style="fill:#020202; stroke:none;" d="M225 54L226 55L225 54z"/>
<path style="fill:#9e9e9e; stroke:none;" d="M226 54L227 55L226 54z"/>
<path style="fill:#a0a0a0; stroke:none;" d="M233 54L234 55L233 54z"/>
<path style="fill:#3b3b3b; stroke:none;" d="M238 54L236 59L237 59L238 54z"/>
<path style="fill:#7d7d7d; stroke:none;" d="M34 55L34 58L36 55L34 55z"/>
<path style="fill:#898989; stroke:none;" d="M43 55L43 60L45 60L45 55L43 55z"/>
<path style="fill:#a2a2a2; stroke:none;" d="M68 55L69 56L68 55z"/>
<path style="fill:#010101; stroke:none;" d="M69 55L70 56L69 55z"/>
<path style="fill:#9b9b9b; stroke:none;" d="M96 55L97 56L96 55z"/>
<path style="fill:#0c0c0c; stroke:none;" d="M224 55L225 56L224 55z"/>
<path style="fill:#828282; stroke:none;" d="M225 55L226 56L225 55z"/>
<path style="fill:#242424; stroke:none;" d="M233 55L232 58L233 55z"/>
<path style="fill:#6e6e6e; stroke:none;" d="M243 55L240 64L241 64L245 55L243 55z"/>
<path style="fill:#a5a5a5; stroke:none;" d="M249 55L250 56L249 55z"/>
<path style="fill:#909090; stroke:none;" d="M69 56L70 57L69 56z"/>
<path style="fill:#030303; stroke:none;" d="M70 56L71 57L70 56z"/>
<path style="fill:#a2a2a2; stroke:none;" d="M94 56L95 57L94 56z"/>
<path style="fill:#3e3e3e; stroke:none;" d="M220 61L225 56L220 61z"/>
<path style="fill:#555555; stroke:none;" d="M249 56L248 61L249 61L249 56z"/>
<path style="fill:#3d3d3d; stroke:none;" d="M35 57L36 63L37 63L35 57z"/>
<path style="fill:#707070; stroke:none;" d="M70 57L71 58L70 57z"/>
<path style="fill:#141414; stroke:none;" d="M71 57L76 62L71 57z"/>
<path style="fill:#99b1b1; stroke:none;" d="M197 57L198 58L197 57z"/>
<path style="fill:#9d9f9f; stroke:none;" d="M203 57L204 58L203 57z"/>
<path style="fill:#000000; stroke:none;" d="M203 58L210 65L213 61L203 58z"/>
<path style="fill:#838383; stroke:none;" d="M231 57L232 58L231 57z"/>
<path style="fill:#717171; stroke:none;" d="M91 58L92 59L91 58z"/>
<path style="fill:#150000; stroke:none;" d="M195 58L196 59L195 58z"/>
<path style="fill:#749192; stroke:none;" d="M196 58L197 59L196 58z"/>
<path style="fill:#616161; stroke:none;" d="M207 58L208 59L207 58z"/>
<path style="fill:#a0a0a0; stroke:none;" d="M214 58L215 59L214 58z"/>
<path style="fill:#444444; stroke:none;" d="M231 58L229 62L231 58z"/>
<path style="fill:#878787; stroke:none;" d="M235 58L236 59L235 58z"/>
<path style="fill:#9a9a9a; stroke:none;" d="M89 59L90 60L89 59z"/>
<path style="fill:#002c2d; stroke:none;" d="M192 63L196 59L192 63z"/>
<path style="fill:#5a0402; stroke:none;" d="M198 65L205 60C201.282 59.2494 199.512 61.8591 198 65z"/>
<path style="fill:#8e8e8e; stroke:none;" d="M209 59L210 60L209 59z"/>
<path style="fill:#010101; stroke:none;" d="M214 59L215 60L214 59z"/>
<path style="fill:#262626; stroke:none;" d="M235 59L232 65L233 65L235 59z"/>
<path style="fill:#555555; stroke:none;" d="M43 60L42 65L43 60z"/>
<path style="fill:#c63d37; stroke:none;" d="M189 80L190 80L207 61C198.845 59.8477 190.665 72.9162 189 80z"/>
<path style="fill:#181818; stroke:none;" d="M213 60L214 61L213 60z"/>
<path style="fill:#909090; stroke:none;" d="M214 60L215 61L214 60z"/>
<path style="fill:#979797; stroke:none;" d="M219 60L220 61L219 60z"/>
<path style="fill:#a1a1a1; stroke:none;" d="M35 61L36 62L35 61z"/>
<path style="fill:#bcbcbc; stroke:none;" d="M42.3333 61.6667L42.6667 62.3333L42.3333 61.6667z"/>
<path style="fill:#90908f; stroke:none;" d="M86 61L87 62L86 61z"/>
<path style="fill:#912a24; stroke:none;" d="M189 81L198 81L202 73L206 73C206.578 70.5323 209.819 65.817 208.694 63.4267C207.317 60.4991 203.311 63.9548 202.039 65.1134C197.238 69.4889 191.986 75.2435 189 81z"/>
<path style="fill:#777777; stroke:none;" d="M213 61L214 62L213 61z"/>
<path style="fill:#020202; stroke:none;" d="M219 61L220 62L219 61z"/>
<path style="fill:#939393; stroke:none;" d="M233 61L234 62L233 61z"/>
<path style="fill:#262626; stroke:none;" d="M247.333 61.6667L247.667 62.3333L247.333 61.6667z"/>
<path style="fill:#939393; stroke:none;" d="M248 61L249 62L248 61z"/>
<path style="fill:#9e9e9e; stroke:none;" d="M37 62L38 63L37 62z"/>
<path style="fill:#4a4a4a; stroke:none;" d="M47 62L46 66L47 66L47 62z"/>
<path style="fill:#7a7a7a; stroke:none;" d="M75 62L76 63L75 62z"/>
<path style="fill:#0b0b0b; stroke:none;" d="M76 62L77 63L76 62z"/>
<path style="fill:#5d5d5d; stroke:none;" d="M217 64L220 62L217 64z"/>
<path style="fill:#616161; stroke:none;" d="M228.333 62.6667L228.667 63.3333L228.333 62.6667z"/>
<path style="fill:#010101; stroke:none;" d="M37 63L38 64L37 63z"/>
<path style="fill:#747474; stroke:none;" d="M76 63L77 64L76 63z"/>
<path style="fill:#1a1a1a; stroke:none;" d="M77 63L77 65L79 65L77 63z"/>
<path style="fill:#9f9f9f; stroke:none;" d="M83 63L84 64L83 63z"/>
<path style="fill:#020000; stroke:none;" d="M191 63L192 64L191 63z"/>
<path style="fill:#242424; stroke:none;" d="M227.333 63.6667L227.667 64.3333L227.333 63.6667z"/>
<path style="fill:#202020; stroke:none;" d="M239.333 63.6667L239.667 64.3333L239.333 63.6667z"/>
<path style="fill:#242424; stroke:none;" d="M246.333 63.6667L246.667 64.3333L246.333 63.6667z"/>
<path style="fill:#818181; stroke:none;" d="M247 63L248 64L247 63z"/>
<path style="fill:#989898; stroke:none;" d="M37 64L38 65L37 64z"/>
<path style="fill:#020202; stroke:none;" d="M38 64L39 65L38 64z"/>
<path style="fill:#4d4d4d; stroke:none;" d="M39 64L54 103L55 103C54.9587 91.3045 43.9774 74.9877 39 64z"/>
<path style="fill:#686868; stroke:none;" d="M82 64L83 65L82 64z"/>
<path style="fill:#080000; stroke:none;" d="M190 64L191 65L190 64z"/>
<path style="fill:#92aeb0; stroke:none;" d="M191 64L192 65L191 64z"/>
<path style="fill:#587476; stroke:none;" d="M197 64L198 65L197 64z"/>
<path style="fill:#8b8b8b; stroke:none;" d="M216 64L217 65L216 64z"/>
<path style="fill:#000000; stroke:none;" d="M217 64L215 68L222 72L223 69L217 64z"/>
<path style="fill:#7e7e7e; stroke:none;" d="M226 64L227 65L226 64z"/>
<path style="fill:#898989; stroke:none;" d="M231 64L232 65L231 64z"/>
<path style="fill:#8a8a8a; stroke:none;" d="M38 65L38 69L39 69L38 65z"/>
<path style="fill:#818181; stroke:none;" d="M45 65L45 70L47 70L45 65z"/>
<path style="fill:#505050; stroke:none;" d="M78 65L80 67L80 65L78 65z"/>
<path style="fill:#123535; stroke:none;" d="M187 69L191 65L187 69z"/>
<path style="fill:#7d9a9a; stroke:none;" d="M196 65L197 66L196 65z"/>
<path style="fill:#0f0000; stroke:none;" d="M197 65L198 66L197 65z"/>
<path style="fill:#335556; stroke:none;" d="M209 65L209 67L211 65L209 65z"/>
<path style="fill:#0a0a0a; stroke:none;" d="M226 65L227 66L226 65z"/>
<path style="fill:#282828; stroke:none;" d="M231 65L230 68L231 65M238.333 65.6667L238.667 66.3333L238.333 65.6667z"/>
<path style="fill:#9a9a9a; stroke:none;" d="M239 65L240 66L239 65z"/>
<path style="fill:#626262; stroke:none;" d="M245 65L242 72L247 65L245 65z"/>
<path style="fill:#d7d7d7; stroke:none;" d="M48 66L48 70L49 70L50 66L48 66z"/>
<path style="fill:#3b0000; stroke:none;" d="M196 66L193 71L196 66z"/>
<path style="fill:#080d0d; stroke:none;" d="M208.333 66.6667L208.667 67.3333L208.333 66.6667z"/>
<path style="fill:#8e8e8e; stroke:none;" d="M219 66L220 67L219 66z"/>
<path style="fill:#363636; stroke:none;" d="M225 66L223 70L225 66z"/>
<path style="fill:#9a9a9a; stroke:none;" d="M226 66L227 67L226 66z"/>
<path style="fill:#5e5e5e; stroke:none;" d="M237 66L236 71L237 71L237 66z"/>
<path style="fill:#606060; stroke:none;" d="M49 67L47 72L49 67z"/>
<path style="fill:#507475; stroke:none;" d="M214 67L215 68L214 67z"/>
<path style="fill:#656565; stroke:none;" d="M220 67L221 68L220 67z"/>
<path style="fill:#7f7f7f; stroke:none;" d="M229 67L230 68L229 67z"/>
<path style="fill:#192727; stroke:none;" d="M207 68L206 71L207 68z"/>
<path style="fill:#91afb0; stroke:none;" d="M213 68L214 69L213 68z"/>
<path style="fill:#570100; stroke:none;" d="M214 68L212 72L214 68z"/>
<path style="fill:#db463f; stroke:none;" d="M215 68L205 85L218 68L215 68z"/>
<path style="fill:#393939; stroke:none;" d="M229 68L227 72L229 68z"/>
<path style="fill:#597274; stroke:none;" d="M81 69L82 70L81 69z"/>
<path style="fill:#011919; stroke:none;" d="M82.3333 69.6667L82.6667 70.3333L82.3333 69.6667z"/>
<path style="fill:#000101; stroke:none;" d="M186 69L187 70L186 69z"/>
<path style="fill:#8b2822; stroke:none;" d="M203 88L221 73L221 70C213.258 70.3301 206.631 81.7785 203 88z"/>
<path style="fill:#424242; stroke:none;" d="M52 70L51 72L53 72L52 70z"/>
<path style="fill:#001718; stroke:none;" d="M185 70L184 73L185 70z"/>
<path style="fill:#7ea7a8; stroke:none;" d="M186 70L187 71L186 70z"/>
<path style="fill:#77a1a1; stroke:none;" d="M192 70L193 71L192 70z"/>
<path style="fill:#202020; stroke:none;" d="M235.333 70.6667L235.667 71.3333L235.333 70.6667z"/>
<path style="fill:#070000; stroke:none;" d="M83 71L84 72L83 71z"/>
<path style="fill:#310000; stroke:none;" d="M192 71L191 74L192 71z"/>
<path style="fill:#7a969a; stroke:none;" d="M211 71L212 72L211 71z"/>
<path style="fill:#9d9d9d; stroke:none;" d="M234 71L235 72L234 71z"/>
<path style="fill:#000000; stroke:none;" d="M51 72L51 76L52 76L51 72z"/>
<path style="fill:#1b4649; stroke:none;" d="M83 72L107 96C103.079 87.5919 91.4081 75.921 83 72z"/>
<path style="fill:#111b1c; stroke:none;" d="M204.333 72.6667L204.667 73.3333L204.333 72.6667z"/>
<path style="fill:#2c0000; stroke:none;" d="M211 72L210 75L211 72z"/>
<path style="fill:#949f9f; stroke:none;" d="M221 72L222 73L221 72z"/>
<path style="fill:#000000; stroke:none;" d="M226 72L224 77L231 80L232 77L226 72z"/>
<path style="fill:#929292; stroke:none;" d="M227.333 72.6667L227.667 73.3333L227.333 72.6667z"/>
<path style="fill:#4a4a4a; stroke:none;" d="M234 72L232 77L233 77L234 72z"/>
<path style="fill:#171717; stroke:none;" d="M242 72L243 73L242 72z"/>
<path style="fill:#7c7c7c; stroke:none;" d="M50 73L52 77L50 73z"/>
<path style="fill:#355253; stroke:none;" d="M183.333 73.6667L183.667 74.3333L183.333 73.6667z"/>
<path style="fill:#507678; stroke:none;" d="M190 73L191 74L190 73z"/>
<path style="fill:#d7352e; stroke:none;" d="M202 73L197 80C200.141 78.4878 202.751 76.7177 202 73z"/>
<path style="fill:#001b1c; stroke:none;" d="M219 73L214 80L219 73z"/>
<path style="fill:#758b8b; stroke:none;" d="M220 73L221 74L220 73z"/>
<path style="fill:#848586; stroke:none;" d="M225 73L226 74L225 73z"/>
<path style="fill:#191919; stroke:none;" d="M241.333 73.6667L241.667 74.3333L241.333 73.6667z"/>
<path style="fill:#727272; stroke:none;" d="M242 73L243 74L242 73z"/>
<path style="fill:#060101; stroke:none;" d="M182.333 74.6667L182.667 75.3333L182.333 74.6667z"/>
<path style="fill:#890b06; stroke:none;" d="M190.333 74.6667L190.667 75.3333L190.333 74.6667z"/>
<path style="fill:#254546; stroke:none;" d="M203.333 74.6667L203.667 75.3333L203.333 74.6667z"/>
<path style="fill:#86a1a4; stroke:none;" d="M204 74L205 75L204 74z"/>
<path style="fill:#678b8b; stroke:none;" d="M209 74L210 75L209 74z"/>
<path style="fill:#6d6d6d; stroke:none;" d="M228 74L229 75L228 74z"/>
<path style="fill:#2f0000; stroke:none;" d="M189.333 75.6667L189.667 76.3333L189.333 75.6667z"/>
<path style="fill:#210000; stroke:none;" d="M209 75L208 78L209 75z"/>
<path style="fill:#6e6e6e; stroke:none;" d="M229 75L230 76L229 75z"/>
<path style="fill:#303030; stroke:none;" d="M240.333 75.6667L240.667 76.3333L240.333 75.6667z"/>
<path style="fill:#909090; stroke:none;" d="M241 75L242 76L241 75z"/>
<path style="fill:#595959; stroke:none;" d="M57 76L54 83L57 76z"/>
<path style="fill:#0a1314; stroke:none;" d="M181.333 76.6667L181.667 77.3333L181.333 76.6667z"/>
<path style="fill:#507b7d; stroke:none;" d="M182 76L183 77L182 76z"/>
<path style="fill:#729090; stroke:none;" d="M188 76L189 77L188 76z"/>
<path style="fill:#000101; stroke:none;" d="M202 76L203 77L202 76z"/>
<path style="fill:#4a7274; stroke:none;" d="M223 76L224 77L223 76z"/>
<path style="fill:#e34a42; stroke:none;" d="M225 76L215 92L226 79L230 80L225 76z"/>
<path style="fill:#a1a1a1; stroke:none;" d="M230.667 76.3333L231.333 76.6667L230.667 76.3333z"/>
<path style="fill:#a5a5a5; stroke:none;" d="M239 76L241 78L239 76z"/>
<path style="fill:#c5c5c5; stroke:none;" d="M50.6667 77.3333L51.3333 77.6667L50.6667 77.3333z"/>
<path style="fill:#750b06; stroke:none;" d="M188 77L188 82L194 82L194 81L189 81L188 77z"/>
<path style="fill:#070000; stroke:none;" d="M201 77L202 78L201 77z"/>
<path style="fill:#89a3a3; stroke:none;" d="M202 77L203 78L202 77z"/>
<path style="fill:#6b9294; stroke:none;" d="M207 77L208 78L207 77z"/>
<path style="fill:#98b2b4; stroke:none;" d="M222 77L223 78L222 77z"/>
<path style="fill:#4c0000; stroke:none;" d="M223 77L221 81L223 77z"/>
<path style="fill:#3b3b3b; stroke:none;" d="M239.333 77.6667L239.667 78.3333L239.333 77.6667z"/>
<path style="fill:#272424; stroke:none;" d="M180.333 78.6667L180.667 79.3333L180.333 78.6667z"/>
<path style="fill:#79999a; stroke:none;" d="M181 78L182 79L181 78z"/>
<path style="fill:#4a4f50; stroke:none;" d="M187 78L187 81L188 81L187 78z"/>
<path style="fill:#040000; stroke:none;" d="M200 78L199 80L200 78z"/>
<path style="fill:#597e80; stroke:none;" d="M201 78L202 79L201 78z"/>
<path style="fill:#5e0100; stroke:none;" d="M207 78L205 83L206 83L207 78z"/>
<path style="fill:#686969; stroke:none;" d="M231 78L232 79L231 78z"/>
<path style="fill:#919191; stroke:none;" d="M238 78L239 79L238 78z"/>
<path style="fill:#5b8082; stroke:none;" d="M200 79L201 80L200 79z"/>
<path style="fill:#8d2822; stroke:none;" d="M226 79C222.257 84.6437 214.364 89.6615 216 97C221.827 94.0408 228.009 85.6435 228 79L226 79z"/>
<path style="fill:#535353; stroke:none;" d="M238 79L236 83L238 79z"/>
<path style="fill:#390000; stroke:none;" d="M179 80L177 87L178 87L179 80z"/>
<path style="fill:#6d898a; stroke:none;" d="M180 80L181 81L180 80z"/>
<path style="fill:#000102; stroke:none;" d="M198 80L199 81L198 80z"/>
<path style="fill:#89a5a6; stroke:none;" d="M199 80L200 81L199 80z"/>
<path style="fill:#95b0b1; stroke:none;" d="M205 80L206 81L205 80z"/>
<path style="fill:#000203; stroke:none;" d="M213 80L214 81L213 80z"/>
<path style="fill:#86a3a6; stroke:none;" d="M220 80L221 81L220 80z"/>
<path style="fill:#2a4445; stroke:none;" d="M229.333 80.6667L229.667 81.3333L229.333 80.6667z"/>
<path style="fill:#312223; stroke:none;" d="M189 82L189 83L198 82L189 82z"/>
<path style="fill:#000000; stroke:none;" d="M212 81L213 82L212 81z"/>
<path style="fill:#1b0000; stroke:none;" d="M220 81L219 84L220 81z"/>
<path style="fill:#030102; stroke:none;" d="M228.333 81.6667L228.667 82.3333L228.333 81.6667z"/>
<path style="fill:#6d898b; stroke:none;" d="M204 82L205 83L204 82z"/>
<path style="fill:#540000; stroke:none;" d="M204.333 83.6667L204.667 84.3333L204.333 83.6667z"/>
<path style="fill:#95aaaa; stroke:none;" d="M211 83L212 84L211 83z"/>
<path style="fill:#6a8e8f; stroke:none;" d="M218 83L219 84L218 83z"/>
<path style="fill:#0e2a2c; stroke:none;" d="M227.333 83.6667L227.667 84.3333L227.333 83.6667z"/>
<path style="fill:#718788; stroke:none;" d="M228 83L229 84L228 83z"/>
<path style="fill:#000000; stroke:none;" d="M236 83L235 86C263.458 112.08 265.664 161.307 253.413 195C249.264 206.409 242.826 220.463 233 228L232 225L231 225L233 233L234 233C259.343 199.372 269.955 161.14 257.025 120C252.954 107.05 246.332 92.171 236 83z"/>
<path style="fill:#696969; stroke:none;" d="M60 84L59 90L62 84L60 84z"/>
<path style="fill:#51696b; stroke:none;" d="M203 84L204 85L203 84z"/>
<path style="fill:#8ba0a2; stroke:none;" d="M210 84L211 85L210 84z"/>
<path style="fill:#1c0000; stroke:none;" d="M218 84L217 87L218 84z"/>
<path style="fill:#2f1f1f; stroke:none;" d="M203 85L202 90L208 86L203 88L203 85z"/>
<path style="fill:#000000; stroke:none;" d="M208 85L209 86L208 85z"/>
<path style="fill:#92aaaa; stroke:none;" d="M209 85L210 86L209 85z"/>
<path style="fill:#000000; stroke:none;" d="M226 85L227 86L226 85z"/>
<path style="fill:#7d7d7d; stroke:none;" d="M238 85L239 86L238 85z"/>
<path style="fill:#9eb1af; stroke:none;" d="M208 86L209 87L208 86z"/>
<path style="fill:#6c9393; stroke:none;" d="M216 86L217 87L216 86z"/>
<path style="fill:#091619; stroke:none;" d="M225.333 86.6667L225.667 87.3333L225.333 86.6667z"/>
<path style="fill:#597577; stroke:none;" d="M226 86L227 87L226 86z"/>
<path style="fill:#43100d; stroke:none;" d="M234 88L237 87L234 88z"/>
<path style="fill:#a9a9a9; stroke:none;" d="M239 86L240 87L239 86z"/>
<path style="fill:#3e3232; stroke:none;" d="M176 87L176 92L177 92L176 87z"/>
<path style="fill:#677f7e; stroke:none;" d="M177 87L177 90L178 90L177 87z"/>
<path style="fill:#1b0000; stroke:none;" d="M216 87L215 90L216 87z"/>
<path style="fill:#688383; stroke:none;" d="M233 87L234 88L233 87z"/>
<path style="fill:#912a24; stroke:none;" d="M235 87C227.645 98.9748 220.584 112.45 206 116.235C200.965 117.542 194.519 113.075 190.329 115.132C184.557 117.965 184.548 126.795 179 130L171 150C166.777 151.491 167.529 154.332 169 158C179.165 152.731 180.934 137.99 188.61 130.252C192.458 126.372 201.624 130.625 207 129.239C219.987 125.892 227.785 112.831 234.139 102C237.166 96.8394 242.014 90.7182 235 87z"/>
<path style="fill:#4c4c4c; stroke:none;" d="M65 88L63 94L64 94L67 88L65 88z"/>
<path style="fill:#001e1e; stroke:none;" d="M224 88L223 91L224 88z"/>
<path style="fill:#370000; stroke:none;" d="M233 88L231 93L232 93L233 88z"/>
<path style="fill:#a5a5a5; stroke:none;" d="M47 89L48 90L47 89z"/>
<path style="fill:#7e8f90; stroke:none;" d="M204 89L205 90L204 89z"/>
<path style="fill:#8faaab; stroke:none;" d="M214 89L215 90L214 89z"/>
<path style="fill:#6a6a6a; stroke:none;" d="M241 89L242 90L241 89z"/>
<path style="fill:#6b0706; stroke:none;" d="M175 90L175 98L176 98L175 90z"/>
<path style="fill:#1b0101; stroke:none;" d="M214 90C214.047 93.9346 213.954 96.6571 218 98L218 97L214 90z"/>
<path style="fill:#89a0a3; stroke:none;" d="M213.333 91.6667L213.667 92.3333L213.333 91.6667z"/>
<path style="fill:#123536; stroke:none;" d="M222 91L220 95L222 91z"/>
<path style="fill:#527072; stroke:none;" d="M176 92L176 98L177 98L176 92z"/>
<path style="fill:#687e7f; stroke:none;" d="M230 92L231 93L230 92z"/>
<path style="fill:#dc443d; stroke:none;" d="M239 92L256 131L257 131C256.762 119.84 248.882 97.9962 239 92z"/>
<path style="fill:#717171; stroke:none;" d="M62 93L62 97L63 97L62 93z"/>
<path style="fill:#3f0000; stroke:none;" d="M230 93L229 96L230 93z"/>
<path style="fill:#a3a3a3; stroke:none;" d="M244 93L245 94L244 93z"/>
<path style="fill:#242424; stroke:none;" d="M70 94L70 97L71 97L70 94z"/>
<path style="fill:#c03b34; stroke:none;" d="M238 94C231.948 105.49 224.48 119.51 213 126.387C209.233 128.644 204.429 130.236 200 129.8C196.974 129.503 193.192 126.996 190.21 128.238C187.63 129.312 186.146 132.724 184.861 135C181.498 140.96 170.98 152.147 171.288 159C171.608 166.124 183.372 174.372 188 179C202.959 193.959 222.338 209.555 233 228C240.619 224.131 245.535 213.416 249.241 206C261.406 181.653 261.328 155.332 258 129L257 129L257 131C251.863 119.966 249.812 100.122 238 94z"/>
<path style="fill:#080b0b; stroke:none;" d="M107 95L109 98L107 95z"/>
<path style="fill:#4d4d4d; stroke:none;" d="M190 95L191 102L192 102L192 95L190 95z"/>
<path style="fill:#000000; stroke:none;" d="M219 95L220 96L219 95z"/>
<path style="fill:#7f9b9c; stroke:none;" d="M228 95L229 96L228 95z"/>
<path style="fill:#5c5c5c; stroke:none;" d="M245 95L246 96L245 95z"/>
<path style="fill:#000000; stroke:none;" d="M53 96C29.4458 136.318 27.6006 206.504 70 237L71 232C63.0328 229.765 57.2012 217.718 53.2006 211C38.7236 186.689 35.0491 157.275 41.5031 130C43.5773 121.234 55.7805 104.037 53 96z"/>
<path style="fill:#c4c4c4; stroke:none;" d="M191 96L191 99L192 99L191 96z"/>
<path style="fill:#010000; stroke:none;" d="M218 96L219 97L218 96z"/>
<path style="fill:#7d9493; stroke:none;" d="M219 96L220 97L219 96z"/>
<path style="fill:#a3a3a2; stroke:none;" d="M223 96L224 101L225 101L223 96z"/>
<path style="fill:#350000; stroke:none;" d="M228 96L227 99L228 96z"/>
<path style="fill:#333333; stroke:none;" d="M69.3333 97.6667L69.6667 98.3333L69.3333 97.6667z"/>
<path style="fill:#cdcdcd; stroke:none;" d="M75 97L76 100L77 100L77 97L75 97z"/>
<path style="fill:#8ea2a2; stroke:none;" d="M218 97L219 98L218 97z"/>
<path style="fill:#575756; stroke:none;" d="M223 97L225 102L223 97z"/>
<path style="fill:#a0a0a0; stroke:none;" d="M51 98L52 99L51 98z"/>
<path style="fill:#808080; stroke:none;" d="M68 98L68 100L70 100L68 98z"/>
<path style="fill:#5c5c5c; stroke:none;" d="M75 98L72 107L73 107L75 98z"/>
<path style="fill:#000000; stroke:none;" d="M109 98L110 99L109 98z"/>
<path style="fill:#420000; stroke:none;" d="M176 98L178 105L179 105L176 98z"/>
<path style="fill:#708585; stroke:none;" d="M215.667 98.3333L216.333 98.6667L215.667 98.3333z"/>
<path style="fill:#7c9293; stroke:none;" d="M226 98L227 99L226 98z"/>
<path style="fill:#808080; stroke:none;" d="M247 98L248 99L247 98z"/>
<path style="fill:#799c9d; stroke:none;" d="M109 99L110 100L109 99z"/>
<path style="fill:#002023; stroke:none;" d="M110 99L113 103L110 99z"/>
<path style="fill:#707070; stroke:none;" d="M219 99L219 104L221 104L221 99L219 99z"/>
<path style="fill:#4a0704; stroke:none;" d="M226 99L225 102L226 99z"/>
<path style="fill:#767676; stroke:none;" d="M50 100L51 101L50 100z"/>
<path style="fill:#d2d2d2; stroke:none;" d="M192 100L193 103L194 103L194 100L192 100z"/>
<path style="fill:#868686; stroke:none;" d="M194 100L193 104L196 100L194 100z"/>
<path style="fill:#676767; stroke:none;" d="M198.667 100.333L199.333 100.667L198.667 100.333z"/>
<path style="fill:#5b5d5d; stroke:none;" d="M248 100L249 101L248 100z"/>
<path style="fill:#912a24; stroke:none;" d="M53 101L50 107L54 116C66.047 118.432 69.1741 133.504 79.0154 139.095C83.9734 141.911 90.4534 142.936 96 141.363C99.1306 140.475 102.606 137.455 106 138.418C114.689 140.884 124.693 156.029 130 163L136 157L136 156L127 143L106 123L105 123C81.3942 139.79 70.7325 111.426 53 101z"/>
<path style="fill:#778382; stroke:none;" d="M55 101L55 102L58 102L55 101z"/>
<path style="fill:#373737; stroke:none;" d="M81 101L78 109L79 109L81 101z"/>
<path style="fill:#000000; stroke:none;" d="M192 101L192 104L193 104L192 101z"/>
<path style="fill:#1a1a1a; stroke:none;" d="M198 101L198 105L199 105L198 101z"/>
<path style="fill:#434343; stroke:none;" d="M203 101L202 103L204 103L203 101z"/>
<path style="fill:#5d5d5d; stroke:none;" d="M49 102L50 103L49 102z"/>
<path style="fill:#320000; stroke:none;" d="M55 102L55 103L62 106L55 102z"/>
<path style="fill:#7b9294; stroke:none;" d="M59 102L60 103L59 102z"/>
<path style="fill:#757575; stroke:none;" d="M197 102L197 107L198 107L197 102z"/>
<path style="fill:#1a0000; stroke:none;" d="M223 102L223 104L225 102L223 102z"/>
<path style="fill:#000303; stroke:none;" d="M113 103L114 104L113 103z"/>
<path style="fill:#c8c8c8; stroke:none;" d="M195 103L195 107L196 107L195 103z"/>
<path style="fill:#a3a3a3; stroke:none;" d="M201 103L201 107L202 107L201 103z"/>
<path style="fill:#000000; stroke:none;" d="M202 103L202 108L203 108L202 103z"/>
<path style="fill:#c3c3c3; stroke:none;" d="M203 103L203 107L204 107L203 103z"/>
<path style="fill:#688080; stroke:none;" d="M222 103L223 104L222 103z"/>
<path style="fill:#565656; stroke:none;" d="M48 104L49 105L48 104z"/>
<path style="fill:#000000; stroke:none;" d="M114 104L116 106L114 104z"/>
<path style="fill:#8b2923; stroke:none;" d="M176 104L177 111L178 111L180 105L176 104z"/>
<path style="fill:#6c8e90; stroke:none;" d="M179 104L180 105L179 104z"/>
<path style="fill:#373737; stroke:none;" d="M193 104L193 106L195 104L193 104z"/>
<path style="fill:#c5c5c5; stroke:none;" d="M205 104L205 106L207 104L205 104z"/>
<path style="fill:#1e1e1e; stroke:none;" d="M209 104L211 109L209 104z"/>
<path style="fill:#acacac; stroke:none;" d="M210 104L210 107L211 107L210 104z"/>
<path style="fill:#c7c7c7; stroke:none;" d="M213.667 104.333L214.333 104.667L213.667 104.333z"/>
<path style="fill:#7f9fa3; stroke:none;" d="M221 104L222 105L221 104z"/>
<path style="fill:#0f0000; stroke:none;" d="M222 104L223 105L222 104z"/>
<path style="fill:#698282; stroke:none;" d="M62 105L63 106L62 105z"/>
<path style="fill:#84a8a9; stroke:none;" d="M114 105L115 106L114 105z"/>
<path style="fill:#8ea9aa; stroke:none;" d="M180 105L181 106L180 105z"/>
<path style="fill:#000000; stroke:none;" d="M194.333 105.667L194.667 106.333L194.333 105.667z"/>
<path style="fill:#414141; stroke:none;" d="M206.333 105.667L206.667 106.333L206.333 105.667z"/>
<path style="fill:#636363; stroke:none;" d="M213 105L214 110L215 110L215 105L213 105z"/>
<path style="fill:#90b4b7; stroke:none;" d="M220 105L221 106L220 105z"/>
<path style="fill:#000000; stroke:none;" d="M221 105L222 106L221 105z"/>
<path style="fill:#300000; stroke:none;" d="M62 106L65 110L62 106z"/>
<path style="fill:#adadad; stroke:none;" d="M83 106L83 109L84 109L83 106z"/>
<path style="fill:#636363; stroke:none;" d="M84 106L82 116L83 116L84 106z"/>
<path style="fill:#709495; stroke:none;" d="M115 106L116 107L115 106z"/>
<path style="fill:#0a0000; stroke:none;" d="M116 106L118 108L116 106z"/>
<path style="fill:#1a1b1c; stroke:none;" d="M180 106L179 110L180 106z"/>
<path style="fill:#9ea8a6; stroke:none;" d="M181 106L182 107L181 106z"/>
<path style="fill:#383838; stroke:none;" d="M198 106L199 111L200 111L198 106z"/>
<path style="fill:#000101; stroke:none;" d="M220 106L221 107L220 106z"/>
<path style="fill:#d6443d; stroke:none;" d="M216 112L223 106L216 112z"/>
<path style="fill:#c03b34; stroke:none;" d="M50 107C27.5372 145.632 38.6293 201.986 69 233L70 233C83.2964 216.505 95.2915 198.231 110.09 183.039C114.919 178.082 128.26 170.379 128.963 163C129.578 156.541 113.184 141.622 108 138.647C103.507 136.068 99.2653 140.154 95 141.363C89.9525 142.793 84.4978 141.606 80.0039 139.095C69.9 133.449 66.6943 117.415 54 116C53.9508 111.839 53.83 109.112 50 107z"/>
<path style="fill:#c8c8c8; stroke:none;" d="M77.3333 107.667L77.6667 108.333L77.3333 107.667z"/>
<path style="fill:#647e7f; stroke:none;" d="M116 107L117 108L116 107z"/>
<path style="fill:#6d6d6d; stroke:none;" d="M194 107L195 108L194 107z"/>
<path style="fill:#020202; stroke:none;" d="M195.333 107.667L195.667 108.333L195.333 107.667z"/>
<path style="fill:#404040; stroke:none;" d="M203 107L203 111L204 111L203 107z"/>
<path style="fill:#7c7c7c; stroke:none;" d="M206 107L208 110L208 107L206 107z"/>
<path style="fill:#000304; stroke:none;" d="M219 107L220 108L219 107z"/>
<path style="fill:#5d5d5d; stroke:none;" d="M46 108L47 109L46 108z"/>
<path style="fill:#617f80; stroke:none;" d="M117 108L118 109L117 108z"/>
<path style="fill:#0c0000; stroke:none;" d="M118 108L119 109L118 108z"/>
<path style="fill:#6d6d6d; stroke:none;" d="M196 108L197 109L196 108z"/>
<path style="fill:#989898; stroke:none;" d="M211 108L211 112L212 112L211 108z"/>
<path style="fill:#96b4b7; stroke:none;" d="M217 108L218 109L217 108z"/>
<path style="fill:#000101; stroke:none;" d="M218 108L219 109L218 108z"/>
<path style="fill:#536a6a; stroke:none;" d="M65 109L66 110L65 109z"/>
<path style="fill:#767676; stroke:none;" d="M89.6667 109.333L90.3333 109.667L89.6667 109.333z"/>
<path style="fill:#787878; stroke:none;" d="M94 109L94 113L96 113L96 109L94 109z"/>
<path style="fill:#5e7d7e; stroke:none;" d="M118 109L119 110L118 109z"/>
<path style="fill:#130000; stroke:none;" d="M119 109L120 110L119 109z"/>
<path style="fill:#090909; stroke:none;" d="M196 109L197 110L196 109z"/>
<path style="fill:#a1a1a1; stroke:none;" d="M204.333 109.667L204.667 110.333L204.333 109.667z"/>
<path style="fill:#646464; stroke:none;" d="M210 109L210 112L211 112L210 109z"/>
<path style="fill:#000000; stroke:none;" d="M217 109L218 110L217 109z"/>
<path style="fill:#7c7c7c; stroke:none;" d="M45 110L46 111L45 110z"/>
<path style="fill:#2b0000; stroke:none;" d="M65 110L71 116L65 110z"/>
<path style="fill:#1c1c1c; stroke:none;" d="M89 110L90 111L89 110z"/>
<path style="fill:#5e7a7a; stroke:none;" d="M119 110L120 111L119 110z"/>
<path style="fill:#090000; stroke:none;" d="M120 110L121 111L120 110z"/>
<path style="fill:#000000; stroke:none;" d="M178 110L177 112L178 110z"/>
<path style="fill:#9b9b9b; stroke:none;" d="M202 110L203 111L202 110z"/>
<path style="fill:#58797b; stroke:none;" d="M215 110L216 111L215 110z"/>
<path style="fill:#000000; stroke:none;" d="M216 110L217 111L216 110z"/>
<path style="fill:#616060; stroke:none;" d="M253 110L254 111L253 110z"/>
<path style="fill:#292929; stroke:none;" d="M88.3333 111.667L88.6667 112.333L88.3333 111.667z"/>
<path style="fill:#8d8d8d; stroke:none;" d="M89 111L90 112L89 111z"/>
<path style="fill:#393939; stroke:none;" d="M105 111L106 117L107 117L105 111z"/>
<path style="fill:#68898b; stroke:none;" d="M120 111L121 112L120 111z"/>
<path style="fill:#010000; stroke:none;" d="M121 111L122 112L121 111z"/>
<path style="fill:#8ba5a7; stroke:none;" d="M178 111L179 112L178 111z"/>
<path style="fill:#3b0000; stroke:none;" d="M213 113L216 111L213 113z"/>
<path style="fill:#9b9b9b; stroke:none;" d="M44 112L45 113L44 112z"/>
<path style="fill:#75999a; stroke:none;" d="M121 112L122 113L121 112z"/>
<path style="fill:#000000; stroke:none;" d="M122 112L123 113L122 112z"/>
<path style="fill:#020000; stroke:none;" d="M176 112L177 113L176 112z"/>
<path style="fill:#648a8b; stroke:none;" d="M177 112L178 113L177 112z"/>
<path style="fill:#9cb1b1; stroke:none;" d="M190.667 112.333L191.333 112.667L190.667 112.333z"/>
<path style="fill:#858585; stroke:none;" d="M254 112L255 113L254 112z"/>
<path style="fill:#939393; stroke:none;" d="M87 113L87 118C89.0339 116.231 89.0339 114.769 87 113z"/>
<path style="fill:#323232; stroke:none;" d="M94 113L94 118L95 118L94 113z"/>
<path style="fill:#bebebe; stroke:none;" d="M105 113L105 117L106 117L105 113z"/>
<path style="fill:#000101; stroke:none;" d="M123 113L124 114L123 113z"/>
<path style="fill:#193536; stroke:none;" d="M173 117L177 113L173 117z"/>
<path style="fill:#060000; stroke:none;" d="M187 118L188 118L193 114C189.513 112.87 188.156 114.852 187 118z"/>
<path style="fill:#0d0000; stroke:none;" d="M209 114L209 115L213 114L209 114z"/>
<path style="fill:#7d0b07; stroke:none;" d="M124 114L129 119L124 114z"/>
<path style="fill:#4a0100; stroke:none;" d="M193 114L193 115L209 116L209 115L193 114z"/>
<path style="fill:#afc5c5; stroke:none;" d="M196.667 114.333L197.333 114.667L196.667 114.333z"/>
<path style="fill:#506768; stroke:none;" d="M207.667 114.333L208.333 114.667L207.667 114.333z"/>
<path style="fill:#707070; stroke:none;" d="M43 115L44 116L43 115z"/>
<path style="fill:#607272; stroke:none;" d="M71 115L72 116L71 115z"/>
<path style="fill:#404040; stroke:none;" d="M87.3333 115.667L87.6667 116.333L87.3333 115.667z"/>
<path style="fill:#494949; stroke:none;" d="M182 115L182 122L183 122L184 115L182 115z"/>
<path style="fill:#9cafad; stroke:none;" d="M187 115L188 116L187 115z"/>
<path style="fill:#5c6c6f; stroke:none;" d="M199 115L199 116L204 116L199 115z"/>
<path style="fill:#cacaca; stroke:none;" d="M93.3333 116.667L93.6667 117.333L93.3333 116.667z"/>
<path style="fill:#5a5a5a; stroke:none;" d="M42.3333 117.667L42.6667 118.333L42.3333 117.667z"/>
<path style="fill:#060000; stroke:none;" d="M72.3333 117.667L72.6667 118.333L72.3333 117.667z"/>
<path style="fill:#001111; stroke:none;" d="M172 117L173 118L172 117z"/>
<path style="fill:#748d8e; stroke:none;" d="M186 117L187 118L186 117z"/>
<path style="fill:#3c3c3c; stroke:none;" d="M256.333 117.667L256.667 118.333L256.333 117.667z"/>
<path style="fill:#93a5a6; stroke:none;" d="M73 118L74 119L73 118z"/>
<path style="fill:#000101; stroke:none;" d="M171 118L172 119L171 118z"/>
<path style="fill:#350000; stroke:none;" d="M186 118L184 123L185 123L186 118z"/>
<path style="fill:#0a0000; stroke:none;" d="M73.3333 119.667L73.6667 120.333L73.3333 119.667z"/>
<path style="fill:#424242; stroke:none;" d="M109 119L109 122L110 122L111 119L109 119z"/>
<path style="fill:#86a3a5; stroke:none;" d="M128 119L129 120L128 119z"/>
<path style="fill:#090000; stroke:none;" d="M129 119L130 120L129 119z"/>
<path style="fill:#000000; stroke:none;" d="M170 119L169 121L170 119z"/>
<path style="fill:#4f4f4f; stroke:none;" d="M41.3333 120.667L41.6667 121.333L41.3333 120.667z"/>
<path style="fill:#7d9696; stroke:none;" d="M74 120L75 121L74 120z"/>
<path style="fill:#486e70; stroke:none;" d="M129 120L130 121L129 120z"/>
<path style="fill:#001718; stroke:none;" d="M130 120L132 123L130 120z"/>
<path style="fill:#80a0a2; stroke:none;" d="M170 120L171 121L170 120z"/>
<path style="fill:#3d3f3f; stroke:none;" d="M257.333 120.667L257.667 121.333L257.333 120.667z"/>
<path style="fill:#5c0905; stroke:none;" d="M74 121L77 124L74 121z"/>
<path style="fill:#928f8f; stroke:none;" d="M108 121L109 125L110 125L108 121z"/>
<path style="fill:#001216; stroke:none;" d="M168 121L164 127L168 121z"/>
<path style="fill:#67888a; stroke:none;" d="M169 121L170 122L169 121z"/>
<path style="fill:#430000; stroke:none;" d="M94 127L94 128L105 123L106 123L109 125C105.399 119.989 98.6007 125.431 94 127z"/>
<path style="fill:#7d7d7d; stroke:none;" d="M112 122L114 129L114 122L112 122z"/>
<path style="fill:#758b8c; stroke:none;" d="M182 122L182 124L184 122L182 122z"/>
<path style="fill:#6c6c6c; stroke:none;" d="M40.3333 123.667L40.6667 124.333L40.3333 123.667z"/>
<path style="fill:#617f80; stroke:none;" d="M77 123L78 124L77 123z"/>
<path style="fill:#80999a; stroke:none;" d="M102 123L103 124L102 123z"/>
<path style="fill:#000000; stroke:none;" d="M132 123L133 124L132 123z"/>
<path style="fill:#170000; stroke:none;" d="M183 123L180 130L183 123z"/>
<path style="fill:#4a4a4a; stroke:none;" d="M258.333 123.667L258.667 124.333L258.333 123.667z"/>
<path style="fill:#081f21; stroke:none;" d="M77.6667 124.333L78.3333 124.667L77.6667 124.333z"/>
<path style="fill:#010000; stroke:none;" d="M133 124L134 125L133 124z"/>
<path style="fill:#575757; stroke:none;" d="M177 124L177 131L178 131L177 124z"/>
<path style="fill:#182e30; stroke:none;" d="M79.6667 125.333L80.3333 125.667L79.6667 125.333z"/>
<path style="fill:#420000; stroke:none;" d="M109 125L111 128L109 125z"/>
<path style="fill:#8ca7a8; stroke:none;" d="M133 125L134 126L133 125z"/>
<path style="fill:#060000; stroke:none;" d="M134 125L135 126L134 125z"/>
<path style="fill:#aeaeae; stroke:none;" d="M176 125C176 128.363 175.284 131.204 179 132L179 131L176 125z"/>
<path style="fill:#440101; stroke:none;" d="M81 126L81 127L94 129L94 128L81 126z"/>
<path style="fill:#a5bdbd; stroke:none;" d="M84.6667 126.333L85.3333 126.667L84.6667 126.333z"/>
<path style="fill:#434343; stroke:none;" d="M116 126L116 132L117 132L118 126L116 126z"/>
<path style="fill:#739596; stroke:none;" d="M134 126L135 127L134 126z"/>
<path style="fill:#090000; stroke:none;" d="M135 126L136 127L135 126z"/>
<path style="fill:#7a7a7a; stroke:none;" d="M259.333 126.667L259.667 127.333L259.333 126.667z"/>
<path style="fill:#5d5d5d; stroke:none;" d="M39.3333 127.667L39.6667 128.333L39.3333 127.667z"/>
<path style="fill:#738587; stroke:none;" d="M87 127L87 128L92 128L87 127z"/>
<path style="fill:#434c4e; stroke:none;" d="M92.6667 127.333L93.3333 127.667L92.6667 127.333z"/>
<path style="fill:#648a8b; stroke:none;" d="M135 127L136 128L135 127z"/>
<path style="fill:#0f0000; stroke:none;" d="M136 127L137 128L136 127z"/>
<path style="fill:#000202; stroke:none;" d="M163 127L164 128L163 127z"/>
<path style="fill:#320000; stroke:none;" d="M111 128L119 136L111 128z"/>
<path style="fill:#628889; stroke:none;" d="M136 128L137 129L136 128z"/>
<path style="fill:#100000; stroke:none;" d="M137 128L138 129L137 128z"/>
<path style="fill:#000000; stroke:none;" d="M162 128L163 129L162 128z"/>
<path style="fill:#666d6d; stroke:none;" d="M180 128L181 129L180 128z"/>
<path style="fill:#5e8486; stroke:none;" d="M137 129L138 130L137 129z"/>
<path style="fill:#0c0000; stroke:none;" d="M138 129L139 130L138 129z"/>
<path style="fill:#060000; stroke:none;" d="M161 129L162 130L161 129z"/>
<path style="fill:#88a2a4; stroke:none;" d="M162 129L163 130L162 129z"/>
<path style="fill:#638689; stroke:none;" d="M138 130L139 131L138 130z"/>
<path style="fill:#100000; stroke:none;" d="M139 130L140 131L139 130z"/>
<path style="fill:#110000; stroke:none;" d="M160 130L161 131L160 130z"/>
<path style="fill:#6f9092; stroke:none;" d="M161 130L162 131L161 130z"/>
<path style="fill:#858585; stroke:none;" d="M260 130L260 133L261 133L260 130z"/>
<path style="fill:#6b6b6b; stroke:none;" d="M38.3333 131.667L38.6667 132.333L38.3333 131.667z"/>
<path style="fill:#525252; stroke:none;" d="M122 131L122 139L123 139L122 131z"/>
<path style="fill:#bebebe; stroke:none;" d="M123 131L123 135L124 135L123 131z"/>
<path style="fill:#6a8b8d; stroke:none;" d="M139 131L140 132L139 131z"/>
<path style="fill:#0c0000; stroke:none;" d="M140 131L141 132L140 131z"/>
<path style="fill:#1b494b; stroke:none;" d="M158 134L161 131L158 134z"/>
<path style="fill:#373737; stroke:none;" d="M172.333 131.667L172.667 132.333L172.333 131.667z"/>
<path style="fill:#6e9394; stroke:none;" d="M140 132L141 133L140 132z"/>
<path style="fill:#060000; stroke:none;" d="M141 132L142 133L141 132z"/>
<path style="fill:#868686; stroke:none;" d="M171 132L173 135L171 132z"/>
<path style="fill:#100304; stroke:none;" d="M177 132L177 135L179 132L177 132z"/>
<path style="fill:#7c9b9c; stroke:none;" d="M141 133L142 134L141 133z"/>
<path style="fill:#050000; stroke:none;" d="M142 133L143 134L142 133z"/>
<path style="fill:#00181b; stroke:none;" d="M157 133L155 137L157 133z"/>
<path style="fill:#8da8a9; stroke:none;" d="M142 134L143 135L142 134z"/>
<path style="fill:#040000; stroke:none;" d="M143 134L144 135L143 134z"/>
<path style="fill:#444444; stroke:none;" d="M171 134L171 140L172 140L171 134z"/>
<path style="fill:#75898a; stroke:none;" d="M176 134L177 135L176 134z"/>
<path style="fill:#a2a2a2; stroke:none;" d="M37.3333 135.667L37.6667 136.333L37.3333 135.667z"/>
<path style="fill:#587576; stroke:none;" d="M119 135L120 136L119 135z"/>
<path style="fill:#8ba9a9; stroke:none;" d="M143 135L144 136L143 135z"/>
<path style="fill:#020000; stroke:none;" d="M144 135L145 136L144 135z"/>
<path style="fill:#c2c2c2; stroke:none;" d="M172.333 135.667L172.667 136.333L172.333 135.667z"/>
<path style="fill:#070000; stroke:none;" d="M176 135L175 138L176 135z"/>
<path style="fill:#898989; stroke:none;" d="M261.333 135.667L261.667 136.333L261.333 135.667z"/>
<path style="fill:#c2bfbe; stroke:none;" d="M124 136L123 140L124 136z"/>
<path style="fill:#706d6d; stroke:none;" d="M125 136L125 143L126 143L125 136z"/>
<path style="fill:#8faaab; stroke:none;" d="M144 136L145 137L144 136z"/>
<path style="fill:#010000; stroke:none;" d="M145 136L147 138L145 136z"/>
<path style="fill:#565656; stroke:none;" d="M37.3333 137.667L37.6667 138.333L37.3333 137.667z"/>
<path style="fill:#98b1b3; stroke:none;" d="M145 137L146 138L145 137z"/>
<path style="fill:#030303; stroke:none;" d="M154 137L155 138L154 137z"/>
<path style="fill:#789496; stroke:none;" d="M174 137L175 138L174 137z"/>
<path style="fill:#464646; stroke:none;" d="M130 138L128 144L129 144L130 138z"/>
<path style="fill:#94b0b1; stroke:none;" d="M146 138L147 139L146 138z"/>
<path style="fill:#020000; stroke:none;" d="M147 138L148 139L147 138z"/>
<path style="fill:#000000; stroke:none;" d="M153 138L152 140L153 138z"/>
<path style="fill:#868483; stroke:none;" d="M170 138L170 143L173 141L170 138z"/>
<path style="fill:#050a0a; stroke:none;" d="M174 138L168 149L174 138z"/>
<path style="fill:#5e0905; stroke:none;" d="M122 139L125 143L122 139z"/>
<path style="fill:#8da9aa; stroke:none;" d="M147 139L148 140L147 139z"/>
<path style="fill:#010000; stroke:none;" d="M148 139L149 140L148 139z"/>
<path style="fill:#769ea0; stroke:none;" d="M153 139L154 140L153 139z"/>
<path style="fill:#93acad; stroke:none;" d="M148 140L149 141L148 140z"/>
<path style="fill:#140000; stroke:none;" d="M149 140L150 141L149 140z"/>
<path style="fill:#0f0000; stroke:none;" d="M151 140L152 141L151 140z"/>
<path style="fill:#648f91; stroke:none;" d="M152 140L153 141L152 140z"/>
<path style="fill:#bebebe; stroke:none;" d="M262 140L262 143L263 143L262 140z"/>
<path style="fill:#434e4e; stroke:none;" d="M149 141L148 145L152 141L149 141z"/>
<path style="fill:#656565; stroke:none;" d="M36 143L36 148L37 148L36 143z"/>
<path style="fill:#a1a1a1; stroke:none;" d="M133 143L133 147L134 147L135 143L133 143z"/>
<path style="fill:#474747; stroke:none;" d="M262 143L262 150L263 150L262 143z"/>
<path style="fill:#335254; stroke:none;" d="M126 144L128 146L128 144L126 144z"/>
<path style="fill:#778b8d; stroke:none;" d="M128.333 144.667L128.667 145.333L128.333 144.667z"/>
<path style="fill:#505050; stroke:none;" d="M134 144L134 147L135 147L134 144z"/>
<path style="fill:#808080; stroke:none;" d="M147 144L148 145L147 144z"/>
<path style="fill:#919191; stroke:none;" d="M146 145L147 146L146 145z"/>
<path style="fill:#0b0b0b; stroke:none;" d="M147 145L148 146L147 145z"/>
<path style="fill:#586869; stroke:none;" d="M169 145L170 146L169 145z"/>
<path style="fill:#6f1e1a; stroke:none;" d="M38 146L38 164L39 164L38 146z"/>
<path style="fill:#460402; stroke:none;" d="M128 146L134 153L128 146z"/>
<path style="fill:#020202; stroke:none;" d="M146 146L147 147L146 146z"/>
<path style="fill:#595e5e; stroke:none;" d="M133 147L133 151L134 151L133 147z"/>
<path style="fill:#c5c5c5; stroke:none;" d="M134 147L134 150L135 150L134 147z"/>
<path style="fill:#000000; stroke:none;" d="M145 147L146 148L145 147z"/>
<path style="fill:#3c0705; stroke:none;" d="M170 147C166.156 150.826 164.419 154.076 169 158L170 147z"/>
<path style="fill:#8a2823; stroke:none;" d="M260 147L260 165L261 165L260 147z"/>
<path style="fill:#010101; stroke:none;" d="M144 148L143 150L144 148z"/>
<path style="fill:#9d9d9d; stroke:none;" d="M145 148L146 149L145 148z"/>
<path style="fill:#797979; stroke:none;" d="M162 148L162 153L163 153L162 148z"/>
<path style="fill:#d0d0d0; stroke:none;" d="M263 148L263 162L264 162L263 148z"/>
<path style="fill:#8f8f8f; stroke:none;" d="M144 149L145 150L144 149z"/>
<path style="fill:#070707; stroke:none;" d="M142 150L143 151L142 150z"/>
<path style="fill:#797979; stroke:none;" d="M143 150L144 151L143 150z"/>
<path style="fill:#8fa7a7; stroke:none;" d="M166 150L167 151L166 150z"/>
<path style="fill:#1f2e2e; stroke:none;" d="M134 160L143 151L134 160z"/>
<path style="fill:#3f3f3f; stroke:none;" d="M161 151L161 157L162 157L161 151z"/>
<path style="fill:#769293; stroke:none;" d="M134 152L135 153L134 152z"/>
<path style="fill:#7f999a; stroke:none;" d="M165 152L166 153L165 152z"/>
<path style="fill:#640706; stroke:none;" d="M134 153L136 156L134 153z"/>
<path style="fill:#94acad; stroke:none;" d="M135 153L136 154L135 153z"/>
<path style="fill:#b1b1b1; stroke:none;" d="M160 154L160 157L161 157L160 154z"/>
<path style="fill:#747474; stroke:none;" d="M164 154L160 160C163.192 158.994 164.916 157.438 164 154z"/>
<path style="fill:#aeaeae; stroke:none;" d="M153 156L153 159L154 159L153 156z"/>
<path style="fill:#555555; stroke:none;" d="M154 156L151 167C154.306 164.517 155.496 159.842 154 156z"/>
<path style="fill:#6a888a; stroke:none;" d="M168 158L169 159L168 158z"/>
<path style="fill:#020506; stroke:none;" d="M169 158L171 161L169 158z"/>
<path style="fill:#000202; stroke:none;" d="M133 160L134 161L133 160z"/>
<path style="fill:#2c2c2c; stroke:none;" d="M160 160L158 165L162 160L160 160z"/>
<path style="fill:#494949; stroke:none;" d="M36 161L36 167L37 167L36 161z"/>
<path style="fill:#000304; stroke:none;" d="M132 161L133 162L132 161z"/>
<path style="fill:#a5a5a5; stroke:none;" d="M161 161L162 162L161 161z"/>
<path style="fill:#8dacad; stroke:none;" d="M170 161L171 162L170 161z"/>
<path style="fill:#070000; stroke:none;" d="M171 161L172 162L171 161z"/>
<path style="fill:#000000; stroke:none;" d="M131 162L132 163L131 162z"/>
<path style="fill:#4d7272; stroke:none;" d="M171 162L172 163L171 162z"/>
<path style="fill:#001416; stroke:none;" d="M172 162L174 165L172 162z"/>
<path style="fill:#3d3f3f; stroke:none;" d="M262 162L262 167L263 167L262 162z"/>
<path style="fill:#010000; stroke:none;" d="M130 163L131 164L130 163z"/>
<path style="fill:#95abac; stroke:none;" d="M131 163L132 164L131 163z"/>
<path style="fill:#b4b4b4; stroke:none;" d="M160.333 163.667L160.667 164.333L160.333 163.667z"/>
<path style="fill:#020000; stroke:none;" d="M129 164L130 165L129 164z"/>
<path style="fill:#8ba3a5; stroke:none;" d="M130 164L131 165L130 164z"/>
<path style="fill:#909090; stroke:none;" d="M157 164L158 165L157 164z"/>
<path style="fill:#080000; stroke:none;" d="M128 165L129 166L128 165z"/>
<path style="fill:#799898; stroke:none;" d="M129 165L130 166L129 165z"/>
<path style="fill:#9c9c9c; stroke:none;" d="M156 165L157 166L156 165z"/>
<path style="fill:#090909; stroke:none;" d="M157 165L158 166L157 165z"/>
<path style="fill:#000101; stroke:none;" d="M174 165L175 166L174 165z"/>
<path style="fill:#0d0000; stroke:none;" d="M127 166L128 167L127 166z"/>
<path style="fill:#6d8e90; stroke:none;" d="M128 166L129 167L128 166z"/>
<path style="fill:#030303; stroke:none;" d="M156 166L157 167L156 166z"/>
<path style="fill:#96b2b1; stroke:none;" d="M174 166L175 167L174 166z"/>
<path style="fill:#000000; stroke:none;" d="M175 166L176 167L175 166z"/>
<path style="fill:#cacaca; stroke:none;" d="M36 167L36 171L37 171L36 167z"/>
<path style="fill:#892824; stroke:none;" d="M39 167L39 172L40 172L39 167z"/>
<path style="fill:#140000; stroke:none;" d="M126 167L127 168L126 167z"/>
<path style="fill:#698a8c; stroke:none;" d="M127 167L128 168L127 167z"/>
<path style="fill:#1f1f1f; stroke:none;" d="M151.333 167.667L151.667 168.333L151.333 167.667z"/>
<path style="fill:#000000; stroke:none;" d="M155 167L156 168L155 167z"/>
<path style="fill:#9e9e9e; stroke:none;" d="M160 167L159 182L162 167L160 167z"/>
<path style="fill:#839d9d; stroke:none;" d="M175 167L176 168L175 167z"/>
<path style="fill:#090000; stroke:none;" d="M176 167L177 168L176 167z"/>
<path style="fill:#7a7a7a; stroke:none;" d="M262.333 167.667L262.667 168.333L262.333 167.667z"/>
<path style="fill:#180000; stroke:none;" d="M125 168L126 169L125 168z"/>
<path style="fill:#5a7e80; stroke:none;" d="M126 168L127 169L126 168z"/>
<path style="fill:#010101; stroke:none;" d="M154 168L155 169L154 168z"/>
<path style="fill:#9e9e9e; stroke:none;" d="M155 168L156 169L155 168z"/>
<path style="fill:#5b5b5b; stroke:none;" d="M161 168L161 183L162 183L161 168z"/>
<path style="fill:#68888a; stroke:none;" d="M176 168L177 169L176 168z"/>
<path style="fill:#130000; stroke:none;" d="M177 168L178 169L177 168z"/>
<path style="fill:#1b0000; stroke:none;" d="M124 169L125 170L124 169z"/>
<path style="fill:#4c7476; stroke:none;" d="M125 169L126 170L125 169z"/>
<path style="fill:#111111; stroke:none;" d="M153 169L154 170L153 169z"/>
<path style="fill:#868686; stroke:none;" d="M154 169L155 170L154 169z"/>
<path style="fill:#555555; stroke:none;" d="M157 169L157 178L158 178L157 169z"/>
<path style="fill:#537a7a; stroke:none;" d="M177 169L178 170L177 169z"/>
<path style="fill:#1e0000; stroke:none;" d="M178 169L179 170L178 169M123 170L124 171L123 170z"/>
<path style="fill:#4a6e71; stroke:none;" d="M124 170L125 171L124 170z"/>
<path style="fill:#5d5d5e; stroke:none;" d="M151 172L154 170L151 172z"/>
<path style="fill:#a8a8a8; stroke:none;" d="M156 170L156 176L157 176L156 170z"/>
<path style="fill:#326062; stroke:none;" d="M178 170C186.15 181.57 199.43 194.85 211 203C206.068 192.423 188.577 174.932 178 170z"/>
<path style="fill:#1a0000; stroke:none;" d="M122 171L123 172L122 171z"/>
<path style="fill:#476d70; stroke:none;" d="M123 171L124 172L123 171z"/>
<path style="fill:#cacaca; stroke:none;" d="M141 171L142 176L143 176L141 171z"/>
<path style="fill:#424243; stroke:none;" d="M37 172L37 175L38 175L37 172z"/>
<path style="fill:#1c0000; stroke:none;" d="M121 172L120 174L121 172z"/>
<path style="fill:#487071; stroke:none;" d="M122 172L123 173L122 172z"/>
<path style="fill:#686867; stroke:none;" d="M141 172L142 183L141 172z"/>
<path style="fill:#200a0b; stroke:none;" d="M150 172L150 174L152 174L152 172L150 172z"/>
<path style="fill:#4c6e71; stroke:none;" d="M121 173L122 174L121 173z"/>
<path style="fill:#798787; stroke:none;" d="M149 173L150 174L149 173z"/>
<path style="fill:#696969; stroke:none;" d="M168.333 173.667L168.667 174.333L168.333 173.667z"/>
<path style="fill:#444444; stroke:none;" d="M261.333 173.667L261.667 174.333L261.333 173.667z"/>
<path style="fill:#130000; stroke:none;" d="M119 174L120 175L119 174z"/>
<path style="fill:#4d7273; stroke:none;" d="M120 174L121 175L120 174z"/>
<path style="fill:#8ba0a2; stroke:none;" d="M148 174L149 175L148 174z"/>
<path style="fill:#530100; stroke:none;" d="M149 174L142 183L149 174z"/>
<path style="fill:#912a24; stroke:none;" d="M150 174C143.316 183.488 133.539 190.567 125.804 199.17C117.103 208.847 109.927 220.218 100.579 229.196C95.2327 234.331 91.0836 244.262 83 245L83 246C85.8424 247.915 90.1778 252.034 93.8302 250.172C101.962 246.026 108.169 233.991 113.669 227C124.442 213.307 138.187 197.564 152 187C156.192 195.989 165.872 200.756 173 207.171C186.38 219.212 201.633 233.283 212 248L219 244C215.774 234.489 206.928 228.205 200.144 221.285C191.194 212.159 183.103 202.002 173.421 193.441C166.114 186.982 157.732 182.101 152 174L150 174z"/>
<path style="fill:#320000; stroke:none;" d="M152 174L157 180L152 174z"/>
<path style="fill:#202020; stroke:none;" d="M167.333 174.667L167.667 175.333L167.333 174.667z"/>
<path style="fill:#b3b3b3; stroke:none;" d="M37.3333 175.667L37.6667 176.333L37.3333 175.667z"/>
<path style="fill:#0d0000; stroke:none;" d="M118 175L119 176L118 175z"/>
<path style="fill:#5f8586; stroke:none;" d="M119 175L120 176L119 175z"/>
<path style="fill:#959595; stroke:none;" d="M261 175L261 178L262 178L261 175z"/>
<path style="fill:#010000; stroke:none;" d="M117 176L118 177L117 176z"/>
<path style="fill:#7c989b; stroke:none;" d="M118 176L119 177L118 176z"/>
<path style="fill:#787878; stroke:none;" d="M166.667 176.333L167.333 176.667L166.667 176.333z"/>
<path style="fill:#000000; stroke:none;" d="M116 177L117 178L116 177z"/>
<path style="fill:#91acae; stroke:none;" d="M117 177L118 178L117 177z"/>
<path style="fill:#363636; stroke:none;" d="M166.333 177.667L166.667 178.333L166.333 177.667z"/>
<path style="fill:#030a0b; stroke:none;" d="M115 178L116 179L115 178z"/>
<path style="fill:#898989; stroke:none;" d="M165 178L166 182L167 182L165 178z"/>
<path style="fill:#808080; stroke:none;" d="M38 179L38 182L39 182L38 179z"/>
<path style="fill:#0a3434; stroke:none;" d="M107 187L115 179L107 187z"/>
<path style="fill:#628282; stroke:none;" d="M157 179L158 180L157 179z"/>
<path style="fill:#353535; stroke:none;" d="M170.333 179.667L170.667 180.333L170.333 179.667z"/>
<path style="fill:#6b6b6b; stroke:none;" d="M260 179L260 182L261 182L260 179z"/>
<path style="fill:#575757; stroke:none;" d="M134 180L135 190L136 180L134 180z"/>
<path style="fill:#050000; stroke:none;" d="M157 180L158 181L157 180z"/>
<path style="fill:#6c8788; stroke:none;" d="M158 180L159 181L158 180z"/>
<path style="fill:#4d4d4d; stroke:none;" d="M165 180L165 185L166 185L165 180z"/>
<path style="fill:#7e7e7e; stroke:none;" d="M169 180L171 183L169 180z"/>
<path style="fill:#641a15; stroke:none;" d="M41.3333 181.667L41.6667 182.333L41.3333 181.667z"/>
<path style="fill:#dce3e3; stroke:none;" d="M141 181L142 182L141 181z"/>
<path style="fill:#7b221d; stroke:none;" d="M257 181L257 184L258 184L257 181z"/>
<path style="fill:#b2b3b3; stroke:none;" d="M139.333 182.667L139.667 183.333L139.333 182.667z"/>
<path style="fill:#183b3d; stroke:none;" d="M159 182L163 185L159 182z"/>
<path style="fill:#4e4b4b; stroke:none;" d="M169 182L168 187L169 187L169 182z"/>
<path style="fill:#757575; stroke:none;" d="M39.3333 183.667L39.6667 184.333L39.3333 183.667z"/>
<path style="fill:#170000; stroke:none;" d="M139 186L142 183L139 186z"/>
<path style="fill:#979797; stroke:none;" d="M259.333 184.667L259.667 185.333L259.333 184.667z"/>
<path style="fill:#591413; stroke:none;" d="M42.3333 185.667L42.6667 186.333L42.3333 185.667z"/>
<path style="fill:#5b7a7b; stroke:none;" d="M138 185L139 186L138 185z"/>
<path style="fill:#000000; stroke:none;" d="M163 185L164 186L163 185z"/>
<path style="fill:#668788; stroke:none;" d="M164 185L165 186L164 185z"/>
<path style="fill:#555555; stroke:none;" d="M172 185L171 191L172 191L172 185z"/>
<path style="fill:#c5c5c5; stroke:none;" d="M127 186L127 189L128 189L127 186z"/>
<path style="fill:#515151; stroke:none;" d="M128 186L128 191L129 191L128 186z"/>
<path style="fill:#597d7f; stroke:none;" d="M137 186L138 187L137 186z"/>
<path style="fill:#000000; stroke:none;" d="M138 186L139 187L138 186z"/>
<path style="fill:#161b1c; stroke:none;" d="M164 186L164 187L172 192L164 186z"/>
<path style="fill:#c1c1c1; stroke:none;" d="M166.667 186.333L167.333 186.667L166.667 186.333z"/>
<path style="fill:#888989; stroke:none;" d="M40.3333 187.667L40.6667 188.333L40.3333 187.667z"/>
<path style="fill:#000203; stroke:none;" d="M106 187L107 188L106 187z"/>
<path style="fill:#647f80; stroke:none;" d="M136 187L137 188L136 187z"/>
<path style="fill:#000000; stroke:none;" d="M137 187L138 188L137 187z"/>
<path style="fill:#c03b34; stroke:none;" d="M93 251L93 252C128.908 277.564 176.22 268.043 212 249L199.285 233L152 187L135 203L93 251z"/>
<path style="fill:#1c1c1c; stroke:none;" d="M175.333 187.667L175.667 188.333L175.333 187.667z"/>
<path style="fill:#000000; stroke:none;" d="M105 188L106 189L105 188z"/>
<path style="fill:#c1bfbf; stroke:none;" d="M132.333 188.667L132.667 189.333L132.333 188.667z"/>
<path style="fill:#719092; stroke:none;" d="M135 188L136 189L135 188z"/>
<path style="fill:#000000; stroke:none;" d="M136 188L137 189L136 188z"/>
<path style="fill:#b1b1b1; stroke:none;" d="M174.333 188.667L174.667 189.333L174.333 188.667M258.333 188.667L258.667 189.333L258.333 188.667z"/>
<path style="fill:#030000; stroke:none;" d="M104 189L105 190L104 189z"/>
<path style="fill:#8faaab; stroke:none;" d="M105 189L106 190L105 189z"/>
<path style="fill:#8a8a8a; stroke:none;" d="M127 189L129 192L127 189z"/>
<path style="fill:#060000; stroke:none;" d="M135 189L136 190L135 189z"/>
<path style="fill:#727272; stroke:none;" d="M175 189L173 193L175 189z"/>
<path style="fill:#001b1b; stroke:none;" d="M103 190L101 194L103 190z"/>
<path style="fill:#719090; stroke:none;" d="M104 190L105 191L104 190z"/>
<path style="fill:#350000; stroke:none;" d="M129 196L135 190L129 196z"/>
<path style="fill:#bababa; stroke:none;" d="M179.667 190.333L180.333 190.667L179.667 190.333z"/>
<path style="fill:#c1c1c1; stroke:none;" d="M41.3333 191.667L41.6667 192.333L41.3333 191.667z"/>
<path style="fill:#515151; stroke:none;" d="M179 191L180 197L181 197L179 191z"/>
<path style="fill:#aeaeae; stroke:none;" d="M257.333 191.667L257.667 192.333L257.333 191.667z"/>
<path style="fill:#666666; stroke:none;" d="M121 192L121 195L123 192L121 192z"/>
<path style="fill:#2c2d2d; stroke:none;" d="M127.333 192.667L127.667 193.333L127.333 192.667z"/>
<path style="fill:#b3b3b3; stroke:none;" d="M179 192L180 199L181 199L179 192z"/>
<path style="fill:#021213; stroke:none;" d="M173 193L179 198L173 193z"/>
<path style="fill:#979797; stroke:none;" d="M184 193L186 195L186 193L184 193z"/>
<path style="fill:#000506; stroke:none;" d="M100 194L101 195L100 194z"/>
<path style="fill:#c7c7c7; stroke:none;" d="M122.333 194.667L122.667 195.333L122.333 194.667z"/>
<path style="fill:#777474; stroke:none;" d="M126 194L129 196L126 194z"/>
<path style="fill:#383838; stroke:none;" d="M184 194L184 202L185 202L184 194z"/>
<path style="fill:#b4b4b4; stroke:none;" d="M256.333 194.667L256.667 195.333L256.333 194.667z"/>
<path style="fill:#012628; stroke:none;" d="M99 195L97 199L99 195z"/>
<path style="fill:#353535; stroke:none;" d="M121 195L120 200L121 200L121 195z"/>
<path style="fill:#cfcfcf; stroke:none;" d="M185 195L185 202L186 202L185 195z"/>
<path style="fill:#3b0000; stroke:none;" d="M126 196L116 210L129 197L126 196z"/>
<path style="fill:#777777; stroke:none;" d="M255 197L256 198L255 197z"/>
<path style="fill:#3f0000; stroke:none;" d="M179 198L191 211L179 198z"/>
<path style="fill:#4c4c4c; stroke:none;" d="M189 198L188 207L189 207L189 198z"/>
<path style="fill:#626262; stroke:none;" d="M44 199L45 200L44 199z"/>
<path style="fill:#000101; stroke:none;" d="M96 199L97 200L96 199z"/>
<path style="fill:#023132; stroke:none;" d="M95 200L93 204L95 200z"/>
<path style="fill:#82a2a5; stroke:none;" d="M96 200L97 201L96 200z"/>
<path style="fill:#616161; stroke:none;" d="M119 200L117 206L118 206L121 200L119 200z"/>
<path style="fill:#d2d2d2; stroke:none;" d="M189 200L189 207L190 207L189 200z"/>
<path style="fill:#a9a9a9; stroke:none;" d="M114 201L115 202L114 201z"/>
<path style="fill:#454545; stroke:none;" d="M113 202L110 214L111 214L115 202L113 202z"/>
<path style="fill:#809a9b; stroke:none;" d="M121 202L122 203L121 202z"/>
<path style="fill:#000c0f; stroke:none;" d="M211 202L215 207L211 202z"/>
<path style="fill:#8d8d8d; stroke:none;" d="M253 202L254 203L253 202z"/>
<path style="fill:#868686; stroke:none;" d="M193 203L195 206L193 203z"/>
<path style="fill:#454545; stroke:none;" d="M194.333 203.667L194.667 204.333L194.333 203.667z"/>
<path style="fill:#959595; stroke:none;" d="M46 204L47 205L46 204z"/>
<path style="fill:#113133; stroke:none;" d="M92 204L90 208L92 204z"/>
<path style="fill:#8caaab; stroke:none;" d="M93 204L94 205L93 204z"/>
<path style="fill:#727272; stroke:none;" d="M252 204L253 205L252 204z"/>
<path style="fill:#e6efef; stroke:none;" d="M118 205L119 206L118 205z"/>
<path style="fill:#888888; stroke:none;" d="M47 206L48 207L47 206z"/>
<path style="fill:#4b4d4d; stroke:none;" d="M193 206L193 212L194 212L193 206z"/>
<path style="fill:#6c6c6c; stroke:none;" d="M251 206L252 207L251 206z"/>
<path style="fill:#bfc7c7; stroke:none;" d="M192 207L192 211L193 211L192 207z"/>
<path style="fill:#010303; stroke:none;" d="M215 207L216 208L215 207z"/>
<path style="fill:#8e8e8e; stroke:none;" d="M48 208L49 209L48 208z"/>
<path style="fill:#082a2b; stroke:none;" d="M89 208L88 211L89 208z"/>
<path style="fill:#86a0a3; stroke:none;" d="M90 208L91 209L90 208z"/>
<path style="fill:#c4c4c4; stroke:none;" d="M112.333 208.667L112.667 209.333L112.333 208.667z"/>
<path style="fill:#040000; stroke:none;" d="M216 208L217 209L216 208z"/>
<path style="fill:#6a6a6a; stroke:none;" d="M250 208L251 209L250 208z"/>
<path style="fill:#436668; stroke:none;" d="M115 209L116 210L115 209z"/>
<path style="fill:#aaaaaa; stroke:none;" d="M196 209L195 215L198 209L196 209z"/>
<path style="fill:#8aa8aa; stroke:none;" d="M216 209L217 210L216 209z"/>
<path style="fill:#060000; stroke:none;" d="M217 209L218 210L217 209z"/>
<path style="fill:#9d9d9d; stroke:none;" d="M49 210L50 211L49 210z"/>
<path style="fill:#628283; stroke:none;" d="M114 210L115 211L114 210z"/>
<path style="fill:#020000; stroke:none;" d="M115 210L116 211L115 210z"/>
<path style="fill:#4e7172; stroke:none;" d="M191 210L192 211L191 210z"/>
<path style="fill:#4e4e4e; stroke:none;" d="M197 210L197 217L198 217L197 210z"/>
<path style="fill:#6a8e8f; stroke:none;" d="M217 210L218 211L217 210z"/>
<path style="fill:#090000; stroke:none;" d="M218 210L219 211L218 210z"/>
<path style="fill:#777777; stroke:none;" d="M249 210L250 211L249 210z"/>
<path style="fill:#010101; stroke:none;" d="M87 211L88 212L87 211z"/>
<path style="fill:#8fa0a2; stroke:none;" d="M113 211L114 212L113 211z"/>
<path style="fill:#4b0302; stroke:none;" d="M114 211L112 215L114 211z"/>
<path style="fill:#011011; stroke:none;" d="M191 211L194 214L191 211z"/>
<path style="fill:#043031; stroke:none;" d="M218 211L222 215L218 211z"/>
<path style="fill:#3d5c5e; stroke:none;" d="M86 212L86 214L88 212L86 212z"/>
<path style="fill:#999a98; stroke:none;" d="M248 212L249 213L248 212z"/>
<path style="fill:#002125; stroke:none;" d="M85.3333 213.667L85.6667 214.333L85.3333 213.667z"/>
<path style="fill:#434343; stroke:none;" d="M104 213L100 227C103.96 224.087 105.864 217.572 104 213z"/>
<path style="fill:#9e9e9e; stroke:none;" d="M105.333 213.667L105.667 214.333L105.333 213.667z"/>
<path style="fill:#5a7a7b; stroke:none;" d="M194 213L195 214L194 213z"/>
<path style="fill:#6c8889; stroke:none;" d="M109 216L112 215L109 216z"/>
<path style="fill:#000000; stroke:none;" d="M206 214L206 218L207 218L206 214z"/>
<path style="fill:#787877; stroke:none;" d="M52 215L53 216L52 215z"/>
<path style="fill:#010101; stroke:none;" d="M84 215L85 216L84 215z"/>
<path style="fill:#000000; stroke:none;" d="M110 215L109 219L110 219L112 215L110 215z"/>
<path style="fill:#434343; stroke:none;" d="M205 215L205 223L207 223L205 215z"/>
<path style="fill:#020707; stroke:none;" d="M222 215L223 216L222 215z"/>
<path style="fill:#001c1f; stroke:none;" d="M83 216L81 220L83 216z"/>
<path style="fill:#809d9d; stroke:none;" d="M84 216L85 217L84 216z"/>
<path style="fill:#000606; stroke:none;" d="M223 216L224 217L223 216z"/>
<path style="fill:#310000; stroke:none;" d="M197 217L204 225L197 217z"/>
<path style="fill:#000000; stroke:none;" d="M224 217L225 218L224 217z"/>
<path style="fill:#9d9d9d; stroke:none;" d="M245 217L246 218L245 217z"/>
<path style="fill:#646464; stroke:none;" d="M54 218L55 219L54 218z"/>
<path style="fill:#4e6567; stroke:none;" d="M108 218L109 219L108 218z"/>
<path style="fill:#96b5b7; stroke:none;" d="M224 218L225 219L224 218z"/>
<path style="fill:#000101; stroke:none;" d="M225 218L226 219L225 218z"/>
<path style="fill:#100000; stroke:none;" d="M108 219L107 222L108 219z"/>
<path style="fill:#828282; stroke:none;" d="M211 219L211 226L212 226L213 219L211 219z"/>
<path style="fill:#000000; stroke:none;" d="M226 219L228 221L226 219z"/>
<path style="fill:#010000; stroke:none;" d="M80 220L81 221L80 220z"/>
<path style="fill:#7da3a5; stroke:none;" d="M226 220L227 221L226 220z"/>
<path style="fill:#989898; stroke:none;" d="M243 220L244 221L243 220z"/>
<path style="fill:#626262; stroke:none;" d="M56 221L57 222L56 221z"/>
<path style="fill:#080000; stroke:none;" d="M79 221L80 222L79 221z"/>
<path style="fill:#97b3b5; stroke:none;" d="M80 221L81 222L80 221z"/>
<path style="fill:#456667; stroke:none;" d="M106 221L107 222L106 221z"/>
<path style="fill:#6b9195; stroke:none;" d="M227 221L228 222L227 221z"/>
<path style="fill:#040e0e; stroke:none;" d="M228 221L231 225L228 221z"/>
<path style="fill:#01292a; stroke:none;" d="M78 222L76 226L78 222z"/>
<path style="fill:#6b9192; stroke:none;" d="M79 222L80 223L79 222z"/>
<path style="fill:#718d8f; stroke:none;" d="M105 222L106 223L105 222z"/>
<path style="fill:#030000; stroke:none;" d="M106 222L107 223L106 222z"/>
<path style="fill:#89a0a0; stroke:none;" d="M104 223L105 224L104 223z"/>
<path style="fill:#68100b; stroke:none;" d="M102 228L107 223L102 228z"/>
<path style="fill:#9c9c9d; stroke:none;" d="M204 224L207 226L206 223L204 224z"/>
<path style="fill:#464646; stroke:none;" d="M212 223L214 230L212 223z"/>
<path style="fill:#909090; stroke:none;" d="M58 224L59 225L58 224z"/>
<path style="fill:#b8cacb; stroke:none;" d="M102 224L102 226L104 224L102 224z"/>
<path style="fill:#757575; stroke:none;" d="M240 224L241 225L240 224z"/>
<path style="fill:#5d5d5e; stroke:none;" d="M59 225L60 226L59 225z"/>
<path style="fill:#000b0c; stroke:none;" d="M204 225L208 229L204 225z"/>
<path style="fill:#89a5a5; stroke:none;" d="M230 225L231 226L230 225z"/>
<path style="fill:#010507; stroke:none;" d="M75 226L76 227L75 226z"/>
<path style="fill:#000000; stroke:none;" d="M74 227L75 228L74 227z"/>
<path style="fill:#170000; stroke:none;" d="M100 227L98 232L102 227L100 227z"/>
<path style="fill:#2e4f50; stroke:none;" d="M73 228L73 230L75 228L73 228z"/>
<path style="fill:#98a0a0; stroke:none;" d="M99 228L100 229L99 228z"/>
<path style="fill:#537172; stroke:none;" d="M208 228L209 229L208 228z"/>
<path style="fill:#606060; stroke:none;" d="M218 228L220 237L220 228L218 228z"/>
<path style="fill:#9a9a9a; stroke:none;" d="M237 228L238 229L237 228z"/>
<path style="fill:#909090; stroke:none;" d="M62 229L63 230L62 229z"/>
<path style="fill:#021617; stroke:none;" d="M72.3333 229.667L72.6667 230.333L72.3333 229.667z"/>
<path style="fill:#060000; stroke:none;" d="M208 229L209 230L208 229z"/>
<path style="fill:#627c7e; stroke:none;" d="M209 229L210 230L209 229z"/>
<path style="fill:#d2d2d2; stroke:none;" d="M232 229L232 237L233 237L232 229z"/>
<path style="fill:#787878; stroke:none;" d="M236 229L237 230L236 229z"/>
<path style="fill:#777777; stroke:none;" d="M63 230L64 231L63 230z"/>
<path style="fill:#020000; stroke:none;" d="M209 230L210 231L209 230z"/>
<path style="fill:#6b7e7f; stroke:none;" d="M210 230L211 231L210 230z"/>
<path style="fill:#bcbcbc; stroke:none;" d="M212.667 230.333L213.333 230.667L212.667 230.333z"/>
<path style="fill:#909090; stroke:none;" d="M219 230L219 235L220 235L219 230z"/>
<path style="fill:#575757; stroke:none;" d="M235 230L236 231L235 230z"/>
<path style="fill:#2b5456; stroke:none;" d="M71.3333 231.667L71.6667 232.333L71.3333 231.667z"/>
<path style="fill:#94b0b1; stroke:none;" d="M72 231L73 232L72 231z"/>
<path style="fill:#393939; stroke:none;" d="M90 231L88 240L89 240L92 231L90 231z"/>
<path style="fill:#688081; stroke:none;" d="M97 231L98 232L97 231z"/>
<path style="fill:#798d8e; stroke:none;" d="M211 231L212 232L211 231z"/>
<path style="fill:#84999c; stroke:none;" d="M96 232L97 233L96 232z"/>
<path style="fill:#869899; stroke:none;" d="M212 232L213 233L212 232z"/>
<path style="fill:#91a5a7; stroke:none;" d="M213 233L214 234L213 233z"/>
<path style="fill:#3b3b3b; stroke:none;" d="M233 233L233 236L234 236L233 233z"/>
<path style="fill:#5b6767; stroke:none;" d="M70 234L71 235L70 234z"/>
<path style="fill:#280000; stroke:none;" d="M213 234L218 240L213 234z"/>
<path style="fill:#a5a5a5; stroke:none;" d="M229 234L229 236L231 234L229 234z"/>
<path style="fill:#d0d0d0; stroke:none;" d="M70 235L70 239L71 239L70 235z"/>
<path style="fill:#5a0100; stroke:none;" d="M94 235L89 243L94 235z"/>
<path style="fill:#3e3e3e; stroke:none;" d="M230 235L230 239L231 239L230 235z"/>
<path style="fill:#676767; stroke:none;" d="M224 236L224 243L226 243L224 236z"/>
<path style="fill:#7b7b7b; stroke:none;" d="M233 236L231 241L233 236z"/>
<path style="fill:#363636; stroke:none;" d="M69 237C70.5854 242.597 74.3804 244.692 80 245L80 244L77 244L77 239L76 239L76 243L69 237z"/>
<path style="fill:#a0a0a0; stroke:none;" d="M82 237L82 240L83 240L82 237z"/>
<path style="fill:#3e3e3e; stroke:none;" d="M83 237L83 240L84 240L83 237z"/>
<path style="fill:#779394; stroke:none;" d="M91 238L92 239L91 238z"/>
<path style="fill:#c1c1c1; stroke:none;" d="M231.333 238.667L231.667 239.333L231.333 238.667z"/>
<path style="fill:#979797; stroke:none;" d="M77 239L77 242L78 242L77 239z"/>
<path style="fill:#6a8384; stroke:none;" d="M218 239L219 240L218 239z"/>
<path style="fill:#222222; stroke:none;" d="M82 240L82 243L83 243L82 240z"/>
<path style="fill:#211212; stroke:none;" d="M87 240L83 244L83 245C86.4413 244.85 88.6663 243.514 87 240z"/>
<path style="fill:#b5cbcb; stroke:none;" d="M88 240L88 242L90 240L88 240z"/>
<path style="fill:#590602; stroke:none;" d="M218 240L220 243L218 240z"/>
<path style="fill:#89a5a6; stroke:none;" d="M219 240L220 241L219 240z"/>
<path style="fill:#060606; stroke:none;" d="M231 241L232 242L231 241z"/>
<path style="fill:#858686; stroke:none;" d="M86 242L87 243L86 242z"/>
<path style="fill:#000000; stroke:none;" d="M220 242C193.455 264.625 153.511 274.11 120 263.653C106.446 259.423 92.3989 246.782 79 245L79 246C112.613 268.676 152.163 277.235 191 262.189C201.691 258.047 214.882 252.279 222 243L220 242z"/>
<path style="fill:#0d0d0d; stroke:none;" d="M230 242L231 243L230 242z"/>
<path style="fill:#838383; stroke:none;" d="M231 242L232 243L231 242z"/>
<path style="fill:#888f90; stroke:none;" d="M85 243L86 244L85 243z"/>
<path style="fill:#5b5b5b; stroke:none;" d="M221 244C224.487 246.368 227.323 245.759 231 244L231 243L223 243L221 244z"/>
<path style="fill:#747474; stroke:none;" d="M80 244L80 245L83 245L80 244z"/>
<path style="fill:#a1a1a1; stroke:none;" d="M78 245L79 246L78 245z"/>
<path style="fill:#8b8b8b; stroke:none;" d="M81 247L82 248L81 247z"/>
<path style="fill:#7a7a7a; stroke:none;" d="M217 247L218 248L217 247z"/>
<path style="fill:#626262; stroke:none;" d="M84 249L85 250L84 249z"/>
<path style="fill:#a8a8a8; stroke:none;" d="M85 250L86 251L85 250z"/>
<path style="fill:#929292; stroke:none;" d="M213 250L214 251L213 250z"/>
<path style="fill:#5c5c5c; stroke:none;" d="M87 251L88 252L87 251z"/>
<path style="fill:#9a9a9a; stroke:none;" d="M210 252L211 253L210 252z"/>
<path style="fill:#727272; stroke:none;" d="M90 253L91 254L90 253z"/>
<path style="fill:#606061; stroke:none;" d="M208 253L209 254L208 253z"/>
<path style="fill:#99999a; stroke:none;" d="M205 255L206 256L205 255z"/>
<path style="fill:#929292; stroke:none;" d="M95 256L96 257L95 256z"/>
<path style="fill:#828282; stroke:none;" d="M203 256L204 257L203 256z"/>
<path style="fill:#797979; stroke:none;" d="M97 257L98 258L97 257z"/>
<path style="fill:#6a6a6a; stroke:none;" d="M201 257L202 258L201 257z"/>
<path style="fill:#838383; stroke:none;" d="M99 258L100 259L99 258z"/>
<path style="fill:#747676; stroke:none;" d="M199 258L200 259L199 258z"/>
<path style="fill:#8d8d8d; stroke:none;" d="M101 259L102 260L101 259z"/>
<path style="fill:#808080; stroke:none;" d="M197 259L198 260L197 259z"/>
<path style="fill:#939393; stroke:none;" d="M103 260L104 261L103 260z"/>
<path style="fill:#878787; stroke:none;" d="M195 260L196 261L195 260z"/>
<path style="fill:#656565; stroke:none;" d="M106 261L107 262L106 261z"/>
<path style="fill:#aaaaaa; stroke:none;" d="M192.667 261.333L193.333 261.667L192.667 261.333z"/>
<path style="fill:#949494; stroke:none;" d="M108 262L109 263L108 262z"/>
<path style="fill:#681b18; stroke:none;" d="M178.667 263.333L179.333 263.667L178.667 263.333z"/>
<path style="fill:#606060; stroke:none;" d="M187 263L188 264L187 263z"/>
<path style="fill:#757575; stroke:none;" d="M113.667 264.333L114.333 264.667L113.667 264.333z"/>
<path style="fill:#601917; stroke:none;" d="M122.667 264.333L123.333 264.667L122.667 264.333z"/>
<path style="fill:#691b19; stroke:none;" d="M174.667 264.333L175.333 264.667L174.667 264.333z"/>
<path style="fill:#a9a9a9; stroke:none;" d="M184.667 264.333L185.333 264.667L184.667 264.333z"/>
<path style="fill:#363636; stroke:none;" d="M117.667 265.333L118.333 265.667L117.667 265.333z"/>
<path style="fill:#bebebe; stroke:none;" d="M181.667 265.333L182.333 265.667L181.667 265.333z"/>
<path style="fill:#626262; stroke:none;" d="M120.667 266.333L121.333 266.667L120.667 266.333z"/>
<path style="fill:#5d1714; stroke:none;" d="M164 266L164 267L167 267L164 266z"/>
<path style="fill:#5b5b5b; stroke:none;" d="M176 266L176 267L179 267L176 266z"/>
<path style="fill:#acacac; stroke:none;" d="M123.667 267.333L124.333 267.667L123.667 267.333z"/>
<path style="fill:#4b4d4d; stroke:none;" d="M125.667 267.333L126.333 267.667L125.667 267.333z"/>
<path style="fill:#6f1e1a; stroke:none;" d="M140 267L140 268L154 268L140 267z"/>
<path style="fill:#797979; stroke:none;" d="M172 267L172 268L175 268L172 267z"/>
<path style="fill:#aeaeae; stroke:none;" d="M128.667 268.333L129.333 268.667L128.667 268.333z"/>
<path style="fill:#606060; stroke:none;" d="M130 268L130 269L133 269L130 268z"/>
<path style="fill:#5a5a5a; stroke:none;" d="M166 268L166 269L169 269L166 268z"/>
<path style="fill:#8d8d8d; stroke:none;" d="M134 269L134 270L139 270L134 269z"/>
<path style="fill:#747676; stroke:none;" d="M157 269L157 270L164 270L157 269z"/>
<path style="fill:#dddddd; stroke:none;" d="M145 270L145 271L154 271L145 270z"/>
</svg>
